<svg preserveAspectRatio="none" width="100%" height="100%" overflow="visible" style="display: block;" viewBox="0 0 19.4716 23.1114" fill="none" xmlns="http://www.w3.org/2000/svg">
<path id="Vector" d="M16.2236 22.1842C14.9654 23.4038 13.5918 23.2112 12.2694 22.6335C10.8701 22.043 9.58629 22.0173 8.10991 22.6335C6.26123 23.4295 5.28553 23.1984 4.18146 22.1842C-2.08352 15.7266 -1.15918 5.89267 5.95311 5.53321C7.68625 5.62307 8.89303 6.48323 9.90724 6.56025C11.4221 6.25214 12.8728 5.36631 14.4904 5.48186C16.429 5.63591 17.8925 6.4062 18.8554 7.79271C14.8499 10.1934 15.7999 15.4699 19.4716 16.9463C18.7398 18.872 17.7898 20.7848 16.2107 22.197L16.2236 22.1842ZM9.77886 5.45618C9.58629 2.59329 11.91 0.231085 14.5803 0C14.9526 3.31222 11.5762 5.77713 9.77886 5.45618Z" fill="var(--fill-0, black)"/>
</svg>
