<svg preserveAspectRatio="none" width="100%" height="100%" overflow="visible" style="display: block;" viewBox="0 0 18.0003 18.0003" fill="none" xmlns="http://www.w3.org/2000/svg">
<path id="Vector" d="M9.00016 14.8413L12.7217 11.1208L11.9252 10.3243L9.56267 12.6869V7.39926H8.43765V12.6869L6.07511 10.3243L5.2786 11.1208L9.00016 14.8413ZM1.12502 4.28408V16.1834C1.12502 16.3852 1.1899 16.5509 1.31965 16.6807C1.4494 16.8104 1.61553 16.8753 1.81803 16.8753H16.1834C16.3852 16.8753 16.5509 16.8104 16.6807 16.6807C16.8104 16.5509 16.8753 16.3852 16.8753 16.1834V4.28408H1.12502ZM1.99129 18.0003C1.48728 18.0003 1.02939 17.7944 0.617636 17.3827C0.205878 16.9709 0 16.5134 0 16.0102V3.92182C0 3.70282 0.0348756 3.49656 0.104627 3.30306C0.174378 3.10956 0.27938 2.93143 0.419633 2.76867L2.17241 0.664887C2.33517 0.445133 2.5388 0.27938 2.7833 0.167628C3.0278 0.0558762 3.28993 0 3.56969 0H14.3879C14.6669 0 14.9324 0.0558762 15.1844 0.167628C15.4364 0.27938 15.6438 0.444758 15.8065 0.663762L17.5807 2.81255C17.7209 2.9753 17.8259 3.15718 17.8957 3.35819C17.9654 3.55844 18.0003 3.76844 18.0003 3.9882V16.009C18.0003 16.5123 17.7944 16.9698 17.3827 17.3816C16.9709 17.7933 16.5134 17.9992 16.0102 17.9992L1.99129 18.0003ZM1.55253 3.15906H16.4253L14.929 1.36127C14.8563 1.28927 14.773 1.2319 14.6793 1.18915C14.5855 1.1464 14.488 1.12502 14.3868 1.12502H3.59106C3.49056 1.12502 3.39306 1.14677 3.29856 1.19027C3.20406 1.23377 3.12156 1.29152 3.05105 1.36352L1.55253 3.15906Z" fill="var(--fill-0, #AF47AF)"/>
</svg>
