<svg preserveAspectRatio="none" width="100%" height="100%" overflow="visible" style="display: block;" viewBox="0 0 7.40027 11.4497" fill="none" xmlns="http://www.w3.org/2000/svg">
<path id="Vector" d="M5.06543 0.803044C5.48479 0.399315 6.14897 0.399352 6.56836 0.803044C7.01055 1.22909 7.01074 1.93765 6.56836 2.36359L3.4502 5.36457C3.24614 5.56127 3.246 5.88866 3.4502 6.08527L6.56836 9.08625C7.01095 9.51259 7.01038 10.2208 6.56738 10.6468C6.14789 11.0502 5.48479 11.0503 5.06543 10.6468L0.886719 6.62531L0.887695 6.62433C0.766698 6.50833 0.66827 6.37046 0.601562 6.21613C0.534713 6.06138 0.5 5.89471 0.5 5.7259C0.500003 5.55708 0.534706 5.39042 0.601562 5.23566C0.668453 5.08091 0.766234 4.9417 0.887695 4.8255L5.06543 0.803044Z" fill="var(--fill-0, #AE83F9)" stroke="var(--stroke-0, #AE83F9)"/>
</svg>
