<svg preserveAspectRatio="none" width="100%" height="100%" overflow="visible" style="display: block;" viewBox="0 0 17.2641 17.9289" fill="none" xmlns="http://www.w3.org/2000/svg">
<g id="Vector">
<path d="M4.42777 8.59412V4.85099C4.42777 4.6274 4.50629 4.43708 4.66333 4.28004C4.81971 4.12299 5.01003 4.04447 5.23428 4.04447C5.45854 4.04447 5.64886 4.12299 5.80524 4.28004C5.96228 4.43708 6.0408 4.6274 6.0408 4.85099V8.59412C6.0408 8.81837 5.96228 9.00869 5.80524 9.16507C5.64819 9.32211 5.45787 9.40064 5.23428 9.40064C5.0107 9.40064 4.82038 9.32211 4.66333 9.16507C4.50629 9.00802 4.42777 8.81771 4.42777 8.59412ZM8.7668 9.88575V0.858315C8.7668 0.634726 8.84499 0.444408 9.00137 0.287363C9.15842 0.130318 9.34873 0.0517952 9.57232 0.0517952C9.79658 0.0517952 9.9869 0.130318 10.1433 0.287363C10.3003 0.444408 10.3788 0.634726 10.3788 0.858315V9.88575C10.3788 10.1546 10.2963 10.3562 10.1313 10.4906C9.9656 10.6251 9.78028 10.6923 9.57532 10.6923C9.37036 10.6923 9.18404 10.6251 9.01634 10.4906C8.84865 10.3562 8.76547 10.1546 8.7668 9.88575ZM0.0517952 12.0238V8.84366C0.0517952 8.62007 0.129985 8.42975 0.286365 8.27271C0.44341 8.11566 0.63406 8.03714 0.858315 8.03714C1.08257 8.03714 1.27289 8.11566 1.42927 8.27271C1.58565 8.42975 1.66384 8.62007 1.66384 8.84366V12.0248C1.66384 12.2937 1.58132 12.495 1.41629 12.6287C1.25126 12.7631 1.06593 12.8303 0.860311 12.8303C0.655354 12.8303 0.46903 12.7631 0.301337 12.6287C0.134976 12.495 0.0517952 12.2937 0.0517952 12.0248M1.13481 17.8771C0.911884 17.8771 0.757833 17.7756 0.672656 17.5726C0.587479 17.3703 0.626075 17.1877 0.788443 17.0246L4.68929 13.1248C4.83369 12.9797 5.01169 12.8989 5.22331 12.8822C5.43492 12.8656 5.6229 12.9298 5.78727 13.0749L8.7668 15.6352L15.5074 8.89357H13.7187C13.577 8.89357 13.4585 8.84566 13.3634 8.74983C13.2682 8.65401 13.2203 8.53523 13.2196 8.39349C13.219 8.25175 13.2669 8.1333 13.3634 8.03814C13.4599 7.94298 13.5783 7.8954 13.7187 7.8954H16.4058C16.6347 7.8954 16.8263 7.97259 16.9807 8.12698C17.1351 8.28136 17.2123 8.47301 17.2123 8.70192V11.389C17.2123 11.5307 17.1644 11.6492 17.0686 11.7443C16.9727 11.8395 16.854 11.8874 16.7122 11.8881C16.5705 11.8887 16.452 11.8408 16.3569 11.7443C16.2617 11.6478 16.2141 11.5294 16.2141 11.389V9.60027L9.32278 16.4916C9.17838 16.636 9.00037 16.7165 8.78876 16.7332C8.57715 16.7498 8.38916 16.6856 8.2248 16.5405L5.24526 13.9802L1.49515 17.7313C1.45256 17.7713 1.39899 17.8055 1.33444 17.8342C1.26989 17.8628 1.20335 17.8771 1.13481 17.8771Z" fill="var(--fill-0, #AF47AF)"/>
<path d="M0.0517952 12.0238V8.84366C0.0517952 8.62007 0.129985 8.42975 0.286365 8.27271C0.44341 8.11566 0.63406 8.03714 0.858315 8.03714C1.08257 8.03714 1.27289 8.11566 1.42927 8.27271C1.58565 8.42975 1.66384 8.62007 1.66384 8.84366V12.0248C1.66384 12.2937 1.58132 12.495 1.41629 12.6287C1.25126 12.7631 1.06593 12.8303 0.860311 12.8303C0.655354 12.8303 0.46903 12.7631 0.301337 12.6287C0.134976 12.495 0.0517952 12.2937 0.0517952 12.0248M4.42777 8.59412V4.85099C4.42777 4.6274 4.50629 4.43708 4.66333 4.28004C4.81971 4.12299 5.01003 4.04447 5.23428 4.04447C5.45854 4.04447 5.64886 4.12299 5.80524 4.28004C5.96228 4.43708 6.0408 4.6274 6.0408 4.85099V8.59412C6.0408 8.81837 5.96228 9.00869 5.80524 9.16507C5.64819 9.32211 5.45787 9.40064 5.23428 9.40064C5.0107 9.40064 4.82038 9.32211 4.66333 9.16507C4.50629 9.00802 4.42777 8.81771 4.42777 8.59412ZM8.7668 9.88575V0.858315C8.7668 0.634726 8.84499 0.444408 9.00137 0.287363C9.15842 0.130318 9.34873 0.0517952 9.57232 0.0517952C9.79658 0.0517952 9.9869 0.130318 10.1433 0.287363C10.3003 0.444408 10.3788 0.634726 10.3788 0.858315V9.88575C10.3788 10.1546 10.2963 10.3562 10.1313 10.4906C9.9656 10.6251 9.78028 10.6923 9.57532 10.6923C9.37036 10.6923 9.18404 10.6251 9.01634 10.4906C8.84865 10.3562 8.76547 10.1546 8.7668 9.88575ZM1.13481 17.8771C0.911884 17.8771 0.757833 17.7756 0.672656 17.5726C0.587479 17.3703 0.626075 17.1877 0.788443 17.0246L4.68929 13.1248C4.83369 12.9797 5.01169 12.8989 5.22331 12.8822C5.43492 12.8656 5.6229 12.9298 5.78727 13.0749L8.7668 15.6352L15.5074 8.89357H13.7187C13.577 8.89357 13.4585 8.84566 13.3634 8.74983C13.2682 8.65401 13.2203 8.53523 13.2196 8.39349C13.219 8.25175 13.2669 8.1333 13.3634 8.03814C13.4599 7.94298 13.5783 7.8954 13.7187 7.8954H16.4058C16.6347 7.8954 16.8263 7.97259 16.9807 8.12698C17.1351 8.28136 17.2123 8.47301 17.2123 8.70192V11.389C17.2123 11.5307 17.1644 11.6492 17.0686 11.7443C16.9727 11.8395 16.854 11.8874 16.7122 11.8881C16.5705 11.8887 16.452 11.8408 16.3569 11.7443C16.2617 11.6478 16.2141 11.5294 16.2141 11.389V9.60027L9.32278 16.4916C9.17838 16.636 9.00037 16.7165 8.78876 16.7332C8.57715 16.7498 8.38916 16.6856 8.2248 16.5405L5.24526 13.9802L1.49515 17.7313C1.45256 17.7713 1.39899 17.8055 1.33444 17.8342C1.26989 17.8628 1.20335 17.8771 1.13481 17.8771Z" stroke="var(--stroke-0, #AF47AF)" stroke-width="0.10359"/>
</g>
</svg>
