<svg preserveAspectRatio="none" width="100%" height="100%" overflow="visible" style="display: block;" viewBox="0 0 15.092 17.0671" fill="none" xmlns="http://www.w3.org/2000/svg">
<g id="_x34_2.Google_PLay">
<path id="Vector" d="M14.36 7.25393L11.4697 5.58455L8.51068 8.54357L11.4695 11.5024L14.3698 9.82745C14.8221 9.55267 15.092 9.07265 15.092 8.54357C15.092 8.01449 14.8219 7.53447 14.36 7.25393Z" fill="var(--fill-0, #FFCE00)"/>
<path id="Vector_2" d="M8.51034 8.54385L0.450574 0.426055C0.170245 0.706383 0 1.08677 0 1.50726V15.5557C0 15.9762 0.170245 16.3566 0.450574 16.6371L8.51034 8.54385Z" fill="url(#paint0_linear_2991_5643)"/>
<path id="Vector_3" d="M8.50978 8.54368L11.4688 5.58465L11.4735 5.57996L7.50879 3.29722L2.28239 0.225556C1.81176 -0.0647997 1.24108 -0.0748266 0.760423 0.195475C0.65034 0.26545 0.55007 0.335639 0.450014 0.425669L8.50978 8.54368Z" fill="var(--fill-0, #00F076)"/>
<path id="Vector_4" d="M0.450014 16.6365C0.55007 16.7266 0.65034 16.7968 0.760423 16.8667C1.00064 16.9969 1.2511 17.0671 1.50135 17.0671C1.77165 17.0671 2.03193 16.9871 2.27236 16.8469L7.50858 13.7899L11.4733 11.5072L11.4686 11.5025L8.50978 8.54349L0.450014 16.6365Z" fill="var(--fill-0, #F63448)"/>
</g>
<defs>
<linearGradient id="paint0_linear_2991_5643" x1="-3.60203" y1="12.5843" x2="4.50339" y2="4.47866" gradientUnits="userSpaceOnUse">
<stop stop-color="#00E2FF"/>
<stop offset="1" stop-color="#00C5FF"/>
</linearGradient>
</defs>
</svg>
