<svg preserveAspectRatio="none" width="100%" height="100%" overflow="visible" style="display: block;" viewBox="0 0 17.3098 15.9782" fill="none" xmlns="http://www.w3.org/2000/svg">
<g id="Frame 1000004039">
<path id="Vector" d="M8.6523 1.12937C9.00615 1.12937 9.32702 1.23626 9.60737 1.44968V1.45066L14.2138 4.97703H14.2148C14.4142 5.12486 14.5702 5.31401 14.6816 5.5405H14.6806C14.7924 5.76616 14.8495 6.00598 14.8496 6.25828V13.7817C14.8494 14.0695 14.7412 14.3223 14.5351 14.5307C14.3289 14.7392 14.0778 14.849 13.791 14.8491H10.4658C10.249 14.849 10.0557 14.7831 9.89546 14.6499L9.82905 14.5884C9.65743 14.4141 9.57229 14.1958 9.57222 13.9477V9.7573H7.73823V13.9477C7.73816 14.1962 7.65245 14.4144 7.48042 14.5884C7.30838 14.7622 7.09199 14.8491 6.84468 14.8491H3.51948C3.23275 14.8491 2.98151 14.739 2.77534 14.5307C2.56924 14.3223 2.46101 14.0695 2.46089 13.7817V6.25828C2.46094 6.00573 2.51686 5.76538 2.62886 5.53953C2.7128 5.37028 2.8212 5.22198 2.95405 5.09617L3.09468 4.978L7.7021 1.45066L7.80757 1.37546C8.05943 1.21133 8.34261 1.12937 8.6523 1.12937ZM3.72163 13.5786H6.47652V9.38718C6.47654 9.13873 6.56266 8.92037 6.7353 8.74656C6.90719 8.57249 7.12375 8.48582 7.37105 8.48582H9.93843C10.1862 8.48582 10.4036 8.57313 10.5761 8.74754C10.7479 8.92136 10.8329 9.13914 10.833 9.38718V13.5786H13.5878V6.25828C13.5878 6.19969 13.5753 6.15201 13.5537 6.11082C13.5286 6.06314 13.4943 6.02066 13.4482 5.98289V5.98191L8.84566 2.47507L8.8398 2.47019L8.83394 2.46629C8.78448 2.42279 8.72856 2.40093 8.65523 2.40086C8.58171 2.40086 8.52528 2.42212 8.47652 2.46531L8.47163 2.47019L8.4648 2.47507L3.86226 5.97996L3.86323 5.98093C3.8161 6.02079 3.78087 6.06485 3.75484 6.11277C3.734 6.15118 3.72126 6.19778 3.72163 6.2573V13.5786Z" fill="var(--fill-0, #8871DB)" stroke="var(--stroke-0, #8871DB)" stroke-width="0.405215"/>
</g>
</svg>
