<svg preserveAspectRatio="none" width="100%" height="100%" overflow="visible" style="display: block;" viewBox="0 0 98.1054 19.5567" fill="none" xmlns="http://www.w3.org/2000/svg">
<g id="Group 1000005254">
<path id="Subtract" d="M76.0894 6.64162C76.8657 6.64162 77.2543 6.66354 77.3394 6.70608C77.4034 6.73798 77.5632 6.78543 77.6959 6.80666C77.8288 6.82797 78.0416 6.88093 78.1744 6.92873C78.3074 6.97664 78.5681 7.09383 78.7593 7.18947C78.9504 7.285 79.1152 7.3697 79.1314 7.38576C79.1474 7.4017 79.2637 7.48728 79.3912 7.57229C79.5188 7.66267 79.764 7.87534 79.9341 8.0508C80.2159 8.33783 80.2586 8.35917 80.3277 8.29006C80.3967 8.22615 80.4121 8.07581 80.4068 6.90725L84.4742 6.93459L84.5015 19.3496H80.4068V18.7383C80.4068 18.4033 80.3805 18.0626 80.2955 17.834L80.0133 18.127C79.8645 18.2863 79.6626 18.4823 79.567 18.5674C79.472 18.6465 79.3875 18.71 79.3707 18.711C79.3547 18.711 79.237 18.786 79.1041 18.8711C78.9713 18.9561 78.8332 19.0303 78.8013 19.0303C78.7641 19.0303 78.684 19.0625 78.6256 19.1104C78.5671 19.1528 78.477 19.1894 78.4293 19.1895C78.3761 19.1895 78.2698 19.2221 78.19 19.2647C78.1049 19.3072 77.9081 19.3656 77.7486 19.3975C77.5892 19.4347 77.3023 19.4822 77.1109 19.5088C76.9195 19.5354 76.4566 19.5567 76.0738 19.5567C75.691 19.5567 75.2281 19.5354 75.0367 19.5088C74.8453 19.4875 74.5846 19.4342 74.4517 19.4024C74.3189 19.3651 74.1486 19.3018 74.0689 19.2647C73.9842 19.2223 73.8893 19.1897 73.857 19.1895C73.8198 19.1895 73.6333 19.1103 73.442 19.0147C73.2506 18.919 72.9262 18.7326 72.7242 18.5996C72.5222 18.4667 72.2721 18.2863 72.1763 18.2012C72.0753 18.1161 71.9106 17.9614 71.8043 17.8604C71.6926 17.754 71.522 17.5631 71.4263 17.4356C71.3254 17.3028 71.2092 17.1589 71.1666 17.1162C71.1294 17.0737 71.0172 16.9194 70.9215 16.7705C70.831 16.6268 70.6397 16.2709 70.5015 15.9893C70.3636 15.7027 70.252 15.4266 70.2515 15.378C70.2515 15.3249 70.2149 15.2343 70.1724 15.1758C70.1247 15.1174 70.0925 14.9952 70.0924 14.9102C70.0924 14.8251 70.0494 14.6759 70.0015 14.5908C69.9271 14.4526 69.9117 14.2397 69.9117 13.1553C69.9064 12.0547 69.9165 11.8467 70.0015 11.6553C70.0493 11.5277 70.0924 11.3629 70.0924 11.2832C70.0925 11.1982 70.13 11.0867 70.1724 11.0283C70.22 10.97 70.2513 10.8799 70.2515 10.8321C70.2515 10.779 70.2837 10.6725 70.3209 10.5928C70.3634 10.5077 70.4376 10.3475 70.4908 10.2305C70.544 10.1135 70.6716 9.87458 70.7779 9.69924C70.8789 9.52384 71.0708 9.23702 71.2037 9.06154C71.3366 8.88611 71.5542 8.62504 71.6871 8.48147C71.82 8.33791 72.1078 8.08227 72.3258 7.91213C72.5436 7.73683 72.7509 7.57791 72.7828 7.55666C72.8094 7.53539 72.8835 7.49232 72.942 7.4551C72.9951 7.42319 73.176 7.32781 73.3355 7.24807C73.4949 7.1737 73.6753 7.08822 73.734 7.06154C73.7924 7.04028 73.9634 6.97105 74.107 6.90725C74.2557 6.84886 74.4207 6.80178 74.4791 6.80178C74.5377 6.80164 74.6703 6.76903 74.7711 6.72658C74.9146 6.66281 75.2072 6.64694 76.0894 6.64162ZM46.9527 6.64162C48.2235 6.64162 48.5428 6.6579 48.7076 6.7217C48.8139 6.76945 49.0049 6.80173 49.1324 6.80178C49.2546 6.80178 49.4193 6.83353 49.5045 6.876C49.5842 6.91322 49.7499 6.96117 49.8775 6.98244C49.9995 6.99843 50.1105 7.04085 50.1265 7.0674C50.1425 7.09399 50.1964 7.12014 50.2496 7.12014C50.2981 7.12054 50.5213 7.2113 50.7388 7.3174C50.9568 7.42905 51.2333 7.58841 51.3502 7.67873C51.4672 7.76392 51.7066 7.9819 51.8873 8.15725C52.0626 8.33255 52.2802 8.57147 52.3707 8.6885C52.4557 8.80547 52.5461 8.93893 52.5621 8.98147L52.6422 9.14065C52.6687 9.18314 52.7271 9.3053 52.775 9.40627C52.8175 9.50724 52.8916 9.71487 52.9341 9.85842C52.982 10.0073 53.0298 10.2151 53.0777 10.5235L49.0103 10.4971L48.9996 10.3369C48.9889 10.2519 48.9464 10.1402 48.9039 10.0977C48.8561 10.0551 48.8189 9.99141 48.8189 9.96486C48.8188 9.93815 48.76 9.84823 48.691 9.76858C48.6165 9.6835 48.4307 9.53952 48.2818 9.4385C48.101 9.32688 47.8459 9.2308 47.5748 9.16701C47.3196 9.11386 47.0324 9.08759 46.857 9.10354C46.6976 9.11948 46.4692 9.15118 46.3521 9.17775C46.2352 9.20432 46.0225 9.28403 45.8736 9.35842C45.73 9.42754 45.5382 9.561 45.4478 9.65139C45.3576 9.74706 45.2566 9.93277 45.2193 10.0762C45.1661 10.2782 45.1666 10.3799 45.2144 10.5235C45.2464 10.6244 45.3255 10.7519 45.3892 10.7998C45.4476 10.8529 45.5965 10.9429 45.7134 10.9961C45.8303 11.0546 46.0327 11.1292 46.1656 11.1612C46.2985 11.1984 46.5487 11.2464 46.7242 11.2783C46.8996 11.3049 47.128 11.3529 47.2291 11.3848C47.3301 11.4167 47.5856 11.4588 47.7877 11.4854L47.7994 11.4873C48.0021 11.514 48.3179 11.5557 48.5054 11.5869C48.6968 11.6188 48.9575 11.6713 49.0904 11.7031C49.2233 11.735 49.436 11.778 49.5689 11.794C49.7014 11.8152 49.8443 11.8524 49.8873 11.8789C49.9298 11.9055 50.0529 11.9426 50.1539 11.9639C50.2549 11.9852 50.4354 12.0386 50.5523 12.0811C50.6692 12.1289 50.9457 12.2457 51.1636 12.3467C51.3815 12.453 51.6474 12.5964 51.7486 12.6709C51.8494 12.7505 51.9503 12.8094 51.9771 12.8096C51.9984 12.8096 52.1423 12.9421 52.2965 13.1016C52.4453 13.2611 52.6049 13.4321 52.6422 13.4746C52.6737 13.5167 52.7051 13.5638 52.7056 13.5801C52.7056 13.596 52.7587 13.6867 52.8277 13.7822C52.8915 13.8726 53.0141 14.1545 53.0992 14.4043C53.2427 14.8244 53.2535 14.9151 53.2535 15.6807C53.2535 16.3453 53.2371 16.5426 53.1627 16.6914C53.1149 16.7924 53.0777 16.9146 53.0777 16.9571C53.0775 16.9999 53.0245 17.1428 52.9556 17.2754C52.8918 17.4083 52.828 17.5261 52.8121 17.542C52.7957 17.5585 52.7104 17.6697 52.6256 17.7969C52.5354 17.9189 52.4507 18.0254 52.4293 18.0205C52.4028 18.0205 52.3864 18.0519 52.3863 18.0889C52.381 18.1208 52.2321 18.2651 52.0513 18.4033C51.8708 18.5361 51.6585 18.6741 51.5787 18.7061C51.4938 18.7379 51.4191 18.7908 51.4029 18.8174C51.3869 18.844 51.3231 18.8711 51.2593 18.8711C51.1903 18.8659 51.0998 18.9025 51.0572 18.9502C51.0147 18.998 50.9406 19.0361 50.898 19.0362C50.8555 19.0362 50.77 19.0678 50.7115 19.1104C50.6529 19.1581 50.5411 19.1895 50.4615 19.1895C50.3764 19.1896 50.2334 19.2222 50.1431 19.2647C50.0474 19.3019 49.8131 19.3656 49.6216 19.3975C49.4301 19.4347 49.0152 19.4881 48.691 19.5147C48.3557 19.5465 47.5214 19.557 46.7242 19.541C45.9639 19.5251 45.3206 19.4875 45.2886 19.461C45.262 19.4344 45.0702 19.3924 44.8629 19.3711C44.6609 19.3498 44.4428 19.3013 44.3843 19.2588C44.3258 19.2217 44.2089 19.1895 44.1187 19.1895C44.0337 19.1841 43.9116 19.1528 43.8531 19.1104C43.7946 19.0625 43.7037 19.0303 43.6558 19.0303C43.6017 19.0297 43.3256 18.9073 43.0445 18.7588C42.7575 18.61 42.433 18.419 42.3267 18.334C42.2151 18.249 42.1142 18.1797 42.0982 18.1797C42.0817 18.1791 41.9439 18.0516 41.7955 17.8926C41.6413 17.7331 41.4768 17.5522 41.4341 17.4883C41.3916 17.4245 41.3111 17.3133 41.2633 17.2442C41.2101 17.1751 41.1676 17.1004 41.1675 17.0791C41.1729 17.0526 41.1362 16.9995 41.0884 16.9571C41.0406 16.9145 41.0084 16.8394 41.0084 16.7969C41.0082 16.7543 40.976 16.6801 40.9283 16.6377C40.8805 16.5952 40.8439 16.526 40.8492 16.4942C40.8492 16.4569 40.8165 16.3452 40.774 16.2549C40.7368 16.1591 40.6731 15.9727 40.6412 15.8399C40.604 15.7068 40.5564 15.4357 40.5299 15.2285C40.5086 15.0215 40.4978 14.8409 40.5084 14.8194C40.519 14.7928 41.4341 14.7764 44.5445 14.7764L44.5816 15.0801C44.6029 15.2502 44.6454 15.4149 44.6773 15.4414C44.7091 15.468 44.7299 15.5368 44.73 15.5899C44.73 15.6377 44.8206 15.7975 44.9322 15.9463C45.0439 16.0952 45.2617 16.2927 45.4478 16.4043C45.623 16.5105 45.8515 16.6112 45.9527 16.6221C46.0535 16.638 46.1707 16.6801 46.2134 16.7119C46.256 16.7438 46.5803 16.7814 46.9576 16.792C47.4838 16.808 47.697 16.7922 47.9468 16.7178C48.1223 16.6699 48.3725 16.579 48.5054 16.5205C48.6383 16.4568 48.7926 16.3616 48.8511 16.2979C48.9096 16.2394 49.0001 16.1114 49.0533 16.0156C49.1011 15.9199 49.1431 15.728 49.1431 15.5899C49.1484 15.4253 49.1172 15.308 49.064 15.2549C49.0162 15.2124 48.9781 15.1487 48.9781 15.1221C48.9775 15.095 48.9139 14.9943 48.8345 14.9043C48.7546 14.8139 48.5633 14.665 48.4146 14.5694C48.2606 14.4791 48.0696 14.3886 47.9898 14.3672C47.9047 14.3459 47.782 14.298 47.7076 14.2608C47.6332 14.2236 47.5163 14.1924 47.442 14.1924C47.3675 14.1924 47.2182 14.1602 47.1119 14.1123C47.0003 14.0699 46.8147 14.0323 46.6978 14.0322C46.5808 14.0322 46.4315 14.006 46.3677 13.9688C46.2986 13.9369 46.0755 13.8885 45.8736 13.8672C45.6717 13.846 45.3953 13.804 45.2623 13.7774C45.1294 13.7455 44.8896 13.6921 44.73 13.6602C44.5706 13.6283 44.3421 13.5862 44.2252 13.5596C44.1082 13.5383 43.9164 13.4898 43.7994 13.4473C43.6823 13.41 43.4434 13.3305 43.2681 13.2774C43.0927 13.2189 42.7946 13.0967 42.6138 13.001C42.4278 12.9106 42.2473 12.8038 42.2154 12.7666C42.1782 12.7295 42.1301 12.6983 42.0982 12.6983C42.0713 12.6978 41.9063 12.5537 41.7418 12.3838C41.5718 12.2085 41.3754 11.9379 41.3062 11.7891C41.2371 11.6349 41.1412 11.4164 41.0933 11.3047C41.0403 11.1932 41.0032 11.0022 41.0084 10.8799C41.0137 10.6832 40.9868 10.6298 40.7847 10.4278C40.6573 10.3004 40.5249 10.1991 40.4927 10.2041C40.4555 10.2041 40.3859 10.1666 40.3433 10.124C40.3006 10.0817 40.2106 10.045 40.147 10.0449C40.0779 10.0449 39.9395 10.0078 39.8384 9.95998C39.6949 9.89087 39.5462 9.8747 39.19 9.89065C38.9194 9.90126 38.7016 9.93807 38.6636 9.98049C38.6264 10.0124 38.5463 10.0449 38.4879 10.0449C38.4241 10.045 38.3285 10.0763 38.2701 10.124C38.2117 10.1665 38.1322 10.204 38.1002 10.2041C38.063 10.2041 37.9512 10.2572 37.8609 10.3262C37.7652 10.39 37.5738 10.5497 37.4302 10.6826C37.292 10.8156 37.1106 11.0178 37.0308 11.1348C36.9513 11.2515 36.8559 11.3786 36.8238 11.416C36.7866 11.4479 36.7545 11.5284 36.7545 11.5869C36.7544 11.6452 36.7335 11.6933 36.7017 11.6934C36.6752 11.6934 36.6327 11.7568 36.6168 11.8418C36.5956 11.9212 36.5584 12.011 36.5318 12.0381C36.5105 12.0647 36.4626 12.2461 36.4254 12.4375C36.3881 12.6559 36.3565 14.0125 36.3033 19.3233L32.2349 19.3496L32.2252 13.2774C32.2145 9.93308 32.2137 7.12045 32.2349 6.85451H34.2291C35.7653 6.85451 36.2331 6.87071 36.2652 6.92385C36.2865 6.95574 36.3137 7.27428 36.3297 7.62502C36.3562 8.20989 36.3668 8.26337 36.4625 8.27932C36.5368 8.28988 36.6219 8.23175 36.7281 8.09377C36.8131 7.98221 37.0149 7.76412 37.1744 7.61525C37.3392 7.46109 37.4832 7.33307 37.5045 7.33303C37.5257 7.33303 37.5786 7.30121 37.6158 7.25881C37.653 7.22161 37.8553 7.09948 38.0572 6.99318C38.2645 6.88687 38.4667 6.80182 38.5093 6.80178C38.5519 6.80178 38.6635 6.76953 38.7486 6.7217C38.8762 6.6579 39.0623 6.64228 39.7056 6.65822C40.2267 6.66886 40.5722 6.70076 40.6998 6.75393C40.8273 6.80176 40.907 6.8705 40.9283 6.95022C40.9442 7.01401 40.9551 7.50311 40.9498 8.04006V9.22072C40.9551 9.33747 40.9818 9.46996 41.0084 9.51272C41.0562 9.58184 41.067 9.58184 41.1148 9.51272C41.1413 9.47013 41.1678 9.37501 41.1627 9.3008C41.1627 9.22643 41.1998 9.1305 41.2476 9.08791C41.2953 9.04551 41.3327 8.97639 41.3277 8.94436C41.3277 8.90714 41.4182 8.7371 41.5299 8.57229C41.6468 8.40214 41.8378 8.16777 41.9654 8.0508C42.093 7.93383 42.237 7.79592 42.2955 7.74807C42.3486 7.69493 42.4016 7.65236 42.4175 7.65236C42.4341 7.65185 42.5454 7.58277 42.6724 7.49807C42.7946 7.41306 42.9594 7.32759 43.0445 7.31154C43.1243 7.29559 43.1881 7.25317 43.1881 7.22658C43.1883 7.20001 43.2683 7.16243 43.3638 7.1465C43.4542 7.13584 43.6036 7.08887 43.6939 7.04104C43.7843 6.99855 43.9115 6.96096 43.9859 6.96096C44.0603 6.95563 44.1771 6.9234 44.2515 6.88088C44.326 6.83835 44.4803 6.8018 44.5972 6.80178C44.7141 6.80178 44.9426 6.7642 45.1021 6.7217C45.3307 6.66321 45.7458 6.64162 46.9527 6.64162ZM60.0591 6.64162C60.9258 6.64162 61.2024 6.6579 61.3619 6.7217C61.468 6.76943 61.6165 6.80167 61.691 6.80178C61.7654 6.80178 61.8936 6.83834 61.984 6.88088C62.0743 6.92873 62.1703 6.96096 62.1968 6.96096C62.2299 6.96165 62.4423 7.0573 62.6754 7.17385C62.9092 7.29077 63.1486 7.4179 63.2017 7.4551C63.2603 7.49236 63.377 7.57798 63.4674 7.65236C63.5578 7.72689 63.7438 7.89704 63.8873 8.03518C64.0573 8.21045 64.1743 8.28455 64.2593 8.27932C64.371 8.26337 64.3761 8.24225 64.4293 6.93459H68.4703L68.4966 19.3496H64.4029V18.6582C64.4029 18.2498 64.3819 17.9577 64.3502 17.9405C64.3236 17.9245 64.2381 17.9462 64.1636 17.9834C64.0895 18.0152 64.0311 18.0573 64.0308 18.0733C64.0308 18.0892 63.9458 18.1851 63.8394 18.2862C63.7331 18.3872 63.605 18.5093 63.5572 18.5518C63.5092 18.5944 63.398 18.6799 63.3131 18.7383C63.2226 18.7968 63.0579 18.8873 62.941 18.9405C62.824 18.9936 62.6905 19.0623 62.648 19.0889C62.6055 19.1154 62.547 19.1476 62.5152 19.1582C62.488 19.1638 62.3766 19.2061 62.2759 19.2432C62.1749 19.2751 61.9839 19.3284 61.8511 19.3496C61.7184 19.3709 61.5537 19.4237 61.4791 19.461C61.3781 19.5194 61.0481 19.5356 60.0435 19.5303C58.9216 19.5303 58.7189 19.5192 58.5806 19.4395C58.4903 19.3917 58.3575 19.3496 58.2779 19.3496C58.193 19.3496 58.0657 19.3178 57.9859 19.2754C57.9008 19.2329 57.7406 19.1577 57.6236 19.1045C57.5067 19.0567 57.3741 18.993 57.3316 18.9717C57.2891 18.9451 57.1932 18.8972 57.1187 18.8653C57.0441 18.8332 56.8365 18.7008 56.6558 18.5733C56.4698 18.4457 56.2466 18.2751 56.1509 18.1953C56.0552 18.1102 55.8954 17.9613 55.7945 17.8604C55.6881 17.7592 55.4916 17.5412 55.3482 17.3819C55.2106 17.2231 55.0729 17.0593 55.0455 17.0264C55.0139 16.9895 54.9922 16.947 54.9918 16.9307C54.9918 16.9147 54.9225 16.8029 54.8375 16.6807C54.7524 16.5531 54.6575 16.3928 54.6256 16.3184C54.5938 16.2442 54.5457 16.1492 54.5191 16.1065C54.4925 16.0639 54.4283 15.9305 54.3804 15.8135C54.3273 15.6965 54.2526 15.5368 54.2154 15.4571C54.173 15.372 54.1412 15.2606 54.1412 15.2022C54.1412 15.1437 54.1095 15.0162 54.067 14.9258C54.0244 14.8301 53.9606 14.5957 53.9234 14.4043C53.8862 14.2074 53.8599 13.6549 53.8599 13.1289C53.8599 12.5387 53.8912 12.0541 53.939 11.7988C53.9816 11.581 54.0458 11.3366 54.0777 11.2569C54.1149 11.1718 54.1412 11.0708 54.1412 11.0283C54.1412 10.9858 54.1788 10.8583 54.232 10.752C54.2798 10.6403 54.4021 10.3747 54.5084 10.1621C54.6147 9.94413 54.7315 9.70434 54.774 9.6299C54.8165 9.5502 54.8645 9.47596 54.8804 9.45998C54.8964 9.44403 54.9656 9.3531 55.0347 9.26272C55.0979 9.168 55.151 9.07863 55.1519 9.06154C55.1519 9.04561 55.2154 8.96043 55.3004 8.87014C55.3801 8.77975 55.5769 8.56621 55.7418 8.40139C55.9065 8.23667 56.1563 8.0086 56.2945 7.89162C56.4322 7.77509 56.5701 7.66893 56.608 7.65236C56.6399 7.63642 56.7625 7.56175 56.8795 7.48733C56.9964 7.41289 57.2788 7.2587 57.5074 7.15236C57.7297 7.0465 57.9308 6.96159 57.9586 6.96096C57.9798 6.96096 58.0654 6.92873 58.1558 6.88088C58.2461 6.83844 58.3734 6.80185 58.4478 6.80178C58.5223 6.80178 58.6661 6.76912 58.7672 6.72658C58.9108 6.66286 59.2036 6.64694 60.0591 6.64162ZM2.08845 0.000996989C3.58757 -0.00431649 4.04505 0.0117414 4.09821 0.0595907C4.15119 0.114966 4.16169 1.00541 4.16169 4.30275C4.15637 8.00303 4.16733 8.48158 4.24177 8.54006C4.30543 8.59306 4.33724 8.59313 4.40095 8.54006C4.44872 8.50821 4.48619 8.44449 4.48102 8.40725C4.48102 8.37541 4.51769 8.33245 4.56013 8.31643C4.60266 8.30048 4.6402 8.25252 4.6402 8.20998C4.64036 8.1676 4.66741 8.13088 4.69392 8.13088C4.72571 8.13046 4.7626 8.08767 4.78376 8.04006C4.80514 7.98676 4.9274 7.7958 5.06013 7.61525C5.19305 7.42916 5.41158 7.12546 5.5445 6.92873C5.67697 6.73798 5.80939 6.55261 5.83649 6.51467C5.8684 6.48277 5.94315 6.376 6.01227 6.28029C6.07604 6.18993 6.12946 6.08324 6.12946 6.05666C6.12977 6.03016 6.16632 5.99351 6.20856 5.97756C6.25103 5.96164 6.28851 5.91359 6.28864 5.87111C6.28864 5.82877 6.30427 5.78593 6.33063 5.78029C6.3519 5.76966 6.5012 5.57826 6.66071 5.34963C6.82019 5.12106 7.06502 4.78126 7.20856 4.58986C7.34667 4.40395 7.45834 4.23891 7.45856 4.22268C7.45856 4.20679 7.48989 4.16446 7.52692 4.12209C7.55883 4.07955 7.71344 3.87145 7.857 3.66408C8.00588 3.45671 8.23496 3.12747 8.37849 2.94143C8.51671 2.75536 8.62751 2.59019 8.62751 2.57424C8.62813 2.5575 8.77774 2.3451 8.96345 2.09572C9.1442 1.84586 9.39893 1.48965 9.53181 1.29299C9.66471 1.10161 9.88239 0.793001 10.0259 0.601583C10.1628 0.417327 10.2738 0.254066 10.2759 0.235372C10.2759 0.219421 10.3299 0.160612 10.399 0.107442C10.5106 0.0118842 10.6391 0.00631111 13.0836 0.000996989C14.7584 -0.00431999 15.6461 0.0116297 15.6461 0.0488486C15.6458 0.08107 15.4225 0.394973 15.1568 0.750997C14.8857 1.10182 14.583 1.50582 14.482 1.63869C14.3811 1.77141 14.2695 1.90927 14.2427 1.94143C14.2108 1.97332 14.1466 2.05829 14.1041 2.12209C14.0616 2.18586 13.977 2.30308 13.9185 2.38283C13.8655 2.45704 13.786 2.53666 13.7486 2.5635C13.7114 2.58476 13.6793 2.63815 13.6793 2.68068C13.6793 2.72322 13.6575 2.76619 13.6256 2.7715C13.5972 2.78469 13.4065 3.01716 13.2056 3.29201C12.9983 3.56848 12.796 3.83444 12.7535 3.87697C12.7058 3.91943 12.6687 3.98315 12.6685 4.00979C12.6685 4.03637 12.6315 4.08965 12.5943 4.11623C12.5568 4.14321 12.2908 4.48312 11.9986 4.86037C11.7115 5.23788 11.4564 5.5789 11.4351 5.60549C11.4084 5.63243 11.3449 5.71695 11.2867 5.79104C11.2234 5.86482 11.181 5.93348 11.1802 5.95022C11.1802 5.96617 11.1269 6.03593 11.0631 6.11037C10.9939 6.18484 10.8826 6.3179 10.8082 6.40822C10.7337 6.49861 10.6378 6.62623 10.5953 6.69533C10.5527 6.75911 10.4885 6.84413 10.4566 6.876C10.4243 6.90859 10.3081 7.06767 10.1968 7.22658C10.0852 7.38609 9.973 7.52997 9.95173 7.54592C9.92926 7.56349 9.70662 7.84437 9.45759 8.17287C9.20927 8.49515 9.00316 8.77576 9.00056 8.79494C9.00056 8.81089 8.95759 8.86482 8.90974 8.91799C8.85653 8.97125 8.76598 9.0775 8.70759 9.1465C8.64913 9.22093 8.54322 9.364 8.47419 9.46486C8.39986 9.57636 8.3623 9.68285 8.38337 9.75197C8.39932 9.81046 8.4794 9.93307 8.55915 10.0235C8.64422 10.1139 8.77143 10.2735 8.85114 10.3692C8.93087 10.4702 9.09562 10.6774 9.22321 10.8369C9.34193 10.9853 9.562 11.2674 9.72907 11.4815L9.76618 11.5283C9.94155 11.7515 10.1009 11.9588 10.1275 11.9854C10.1541 12.012 10.2338 12.1132 10.3082 12.1983C10.3826 12.2833 10.5206 12.4584 10.6109 12.586C10.7065 12.7081 10.7971 12.8093 10.8238 12.8096C10.8451 12.8096 10.8609 12.8471 10.8609 12.8897C10.861 12.9321 10.8827 12.9748 10.9039 12.9854C10.9312 12.9918 11.0793 13.1616 11.233 13.3682C11.3925 13.5755 11.5898 13.8144 11.6695 13.8994C11.7545 13.9845 11.8179 14.075 11.8179 14.1016C11.8179 14.1228 11.8606 14.1813 11.9136 14.2344C11.9668 14.2822 12.1216 14.4681 12.2545 14.6436C12.3874 14.819 12.5254 15.0005 12.5679 15.043C12.6107 15.0859 12.7645 15.2768 12.9078 15.4678C13.0566 15.6591 13.2109 15.8509 13.2535 15.8936C13.296 15.9361 13.4823 16.1645 13.6578 16.3985C13.8328 16.6318 14.0131 16.8599 14.0562 16.9033C14.0988 16.9459 14.3494 17.2598 14.6099 17.5947C14.8704 17.9297 15.1097 18.2382 15.1363 18.2754C15.1682 18.3126 15.2211 18.3711 15.2476 18.4082C15.2795 18.4454 15.4338 18.6374 15.5933 18.8447C15.7519 19.0508 15.8999 19.2201 15.9224 19.2324C15.9489 19.2377 15.9653 19.2694 15.9654 19.2959C15.9654 19.3331 15.0084 19.3496 10.4361 19.3496L10.2925 19.1475C10.2075 19.0411 10.1223 18.9131 10.0904 18.8653C10.0584 18.8172 9.94165 18.6417 9.82477 18.4717C9.70779 18.3069 9.46255 17.9725 9.28181 17.7227C9.09571 17.4781 8.94685 17.265 8.94685 17.249C8.94596 17.232 8.83447 17.0681 8.69685 16.8828C8.55329 16.6914 8.33563 16.377 8.2027 16.1856C8.06981 15.9889 7.9209 15.792 7.86774 15.7442C7.82016 15.6965 7.77729 15.6387 7.77692 15.6172C7.77692 15.5906 7.66516 15.4205 7.52692 15.2344C7.38337 15.043 7.1657 14.729 7.03278 14.5322C6.89995 14.341 6.75162 14.1334 6.70368 14.0801C6.65051 14.0216 6.60798 13.9524 6.60798 13.9258C6.60785 13.8993 6.59108 13.8676 6.56989 13.8623C6.54289 13.8509 6.45331 13.745 6.36872 13.6182C6.28368 13.4906 6.17203 13.3305 6.12946 13.2666C6.08693 13.1975 5.95347 13.0061 5.83649 12.836C5.71959 12.6712 5.5118 12.3838 5.3736 12.1924C5.23021 12.0065 5.11872 11.8254 5.11872 11.7988C5.11828 11.7723 5.08092 11.7356 5.03864 11.7197C4.99623 11.7037 4.95954 11.6662 4.95954 11.6397C4.95925 11.6128 4.87981 11.4799 4.78962 11.3526C4.69394 11.225 4.57633 11.0658 4.53376 11.002C4.49129 10.9383 4.42802 10.8477 4.39606 10.7998C4.33758 10.7201 4.32109 10.72 4.24665 10.7891C4.16697 10.8637 4.15637 11.2332 4.16169 19.3496H0.014228L0.00348586 9.70412C-0.00713371 1.33033 0.00394166 0.0576772 0.0728218 0.0332236C0.110041 0.0172726 1.01974 0.000996989 2.08845 0.000996989ZM77.4566 10.0762C77.3662 10.0656 77.116 10.0818 76.898 10.1084C76.68 10.135 76.4141 10.1934 76.3131 10.2412C76.212 10.2891 76.09 10.3479 76.0474 10.3692C76.0049 10.3957 75.914 10.4432 75.8502 10.4697C75.7807 10.502 75.5528 10.6992 75.3404 10.9063C75.0692 11.1827 74.899 11.4116 74.7554 11.6934C74.6492 11.9113 74.5582 12.1294 74.5582 12.1719C74.558 12.2148 74.5268 12.3423 74.4791 12.4483C74.426 12.5812 74.399 12.8201 74.399 13.1387C74.4043 13.4683 74.4312 13.6762 74.4791 13.7666C74.5215 13.841 74.5528 13.9578 74.5582 14.0322C74.5582 14.1067 74.6116 14.261 74.6754 14.378C74.7392 14.4949 74.8134 14.6388 74.8453 14.6973C74.8772 14.7558 74.9518 14.8725 75.0103 14.9629C75.0688 15.048 75.2389 15.2398 75.3931 15.3887C75.5419 15.5321 75.8184 15.7333 76.0045 15.8291C76.1905 15.9248 76.4353 16.032 76.5523 16.0586C76.6693 16.0905 76.9091 16.138 77.0845 16.1699C77.3395 16.2124 77.4835 16.2019 77.8023 16.1328C78.0203 16.0849 78.3764 15.9569 78.5943 15.8506C78.8335 15.7336 79.1103 15.5368 79.2857 15.3613C79.4505 15.2018 79.6736 14.9254 79.7799 14.75C79.8913 14.5748 79.976 14.3944 79.9761 14.3516C79.9814 14.3092 80.003 14.2455 80.0347 14.2188C80.0666 14.1869 80.1304 13.9471 80.1783 13.6865C80.2207 13.4216 80.263 13.1726 80.2633 13.1289C80.2633 13.0864 80.2267 12.8466 80.1841 12.5967C80.1416 12.3415 80.0293 11.9851 79.9283 11.7725C79.8326 11.5652 79.6788 11.3044 79.5884 11.1875C79.4983 11.0708 79.387 10.9436 79.3443 10.8955C79.2965 10.853 79.1683 10.7408 79.0513 10.6504C78.9347 10.5603 78.8022 10.4704 78.7593 10.4541L78.3336 10.2412C78.2325 10.1934 78.0249 10.14 77.8814 10.124C77.7327 10.1081 77.547 10.0868 77.4566 10.0762ZM61.3726 10.0762C61.2982 10.0656 61.0697 10.0819 60.8677 10.1084C60.6657 10.135 60.4156 10.1938 60.3199 10.2363C60.2295 10.2736 60.1386 10.3106 60.1226 10.3106C60.1048 10.312 59.9569 10.4014 59.7935 10.5069C59.6235 10.6131 59.411 10.7729 59.3258 10.8633C59.2354 10.9537 59.0866 11.1243 59.0015 11.2412C58.9111 11.3582 58.7885 11.5605 58.73 11.6934C58.6663 11.8261 58.5762 12.0276 58.523 12.1446C58.4486 12.3147 58.4322 12.5068 58.4322 13.1289V13.8994C58.8895 14.8565 59.0117 15.0321 59.2935 15.3086C59.4902 15.5 59.7984 15.7339 59.9898 15.835C60.1812 15.936 60.4314 16.0369 60.5484 16.0635C60.6654 16.0901 60.8834 16.1375 61.0269 16.1641C61.2076 16.2013 61.3775 16.2012 61.5582 16.1641C61.707 16.1375 61.9311 16.0905 62.064 16.0586C62.1969 16.032 62.3878 15.9623 62.4888 15.9092C62.5899 15.856 62.7075 15.7814 62.7447 15.7442C62.782 15.7124 62.8507 15.6807 62.8931 15.6807C62.9357 15.6807 62.9778 15.6431 62.9937 15.6006C63.0097 15.5582 63.042 15.5216 63.0738 15.5215C63.1004 15.5215 63.2067 15.436 63.3131 15.335C63.4141 15.234 63.4996 15.1331 63.4996 15.1065C63.4943 15.0852 63.5475 15.0214 63.606 14.9629C63.6644 14.9044 63.7178 14.8243 63.7125 14.7871C63.7126 14.7554 63.7281 14.7187 63.7545 14.708C63.7757 14.7027 63.8446 14.5962 63.9136 14.4688C63.9774 14.3465 64.0308 14.1972 64.0308 14.1387C64.0309 14.0802 64.0684 13.9581 64.1109 13.8731C64.1694 13.7508 64.185 13.5593 64.1744 13.0596C64.1638 12.6874 64.1266 12.331 64.0894 12.2246C64.0469 12.1236 63.9405 11.8843 63.8502 11.6983C63.76 11.5127 63.6488 11.3165 63.606 11.2627C63.5635 11.2095 63.4617 11.0869 63.3873 10.9912C63.3075 10.8955 63.074 10.7041 62.8668 10.5606C62.6596 10.4225 62.4575 10.3108 62.4254 10.3106C62.3881 10.3106 62.3081 10.2789 62.2496 10.2363C62.1911 10.1938 62.0001 10.1453 61.8248 10.124C61.6494 10.1081 61.4471 10.0815 61.3726 10.0762Z" fill="var(--fill-0, black)"/>
<path id="Subtract_2" d="M21.663 6.63955C22.5272 6.63955 22.806 6.65627 22.9657 6.71962C23.0715 6.76723 23.221 6.79841 23.2958 6.79873C23.3698 6.79875 23.5027 6.83657 23.5878 6.8788C23.6719 6.9261 23.7834 6.95814 23.827 6.95888C23.8693 6.95888 23.9551 6.9909 24.0136 7.0331C24.0717 7.07012 24.1784 7.12294 24.2528 7.14443C24.327 7.16563 24.4867 7.25104 24.6141 7.33584C24.7336 7.41895 24.8443 7.48705 24.8641 7.49013C24.88 7.49013 24.9283 7.5229 24.9706 7.55459C25.0187 7.59211 25.2159 7.77279 25.412 7.95302C25.6394 8.16455 25.8051 8.28163 25.8749 8.27236C25.9702 8.26164 25.981 8.21274 25.997 7.65029C26.0075 7.27503 26.0391 7.01428 26.0761 6.96962C26.1239 6.91647 26.5452 6.89987 28.0009 6.90517C29.0196 6.90517 29.9128 6.91657 30.1014 6.95888V19.3476H26.0077L25.997 18.6454C25.9863 18.1406 25.9647 17.9436 25.9169 17.9276C25.8779 17.9194 25.7403 18.0138 25.6141 18.1347C25.4866 18.2622 25.311 18.4226 25.2313 18.497C25.1462 18.5713 25.0028 18.6778 24.9179 18.7362C24.8326 18.7947 24.6615 18.8844 24.5448 18.9374C24.4281 18.9905 24.2952 19.0603 24.2528 19.0868C24.2103 19.1133 24.1465 19.1456 24.12 19.1561C24.0917 19.1623 23.9805 19.2037 23.8807 19.2352C23.7794 19.2725 23.577 19.3265 23.4286 19.3583C23.2856 19.3849 23.1315 19.4378 23.0888 19.4696C23.0337 19.5172 22.6126 19.5331 21.6796 19.5331C20.5268 19.5278 20.3236 19.5171 20.1854 19.4374C20.1003 19.3898 19.9666 19.3476 19.8925 19.3476C19.8181 19.347 19.7113 19.3097 19.6532 19.2675C19.5944 19.2201 19.4825 19.1874 19.4032 19.1874C19.319 19.1871 19.2549 19.1611 19.2548 19.1347C19.2541 19.1081 19.1906 19.0656 19.1112 19.0497C19.0264 19.0283 18.925 18.9852 18.8827 18.9481C18.8398 18.9111 18.7488 18.8687 18.6854 18.8476C18.6173 18.8314 18.5636 18.789 18.5634 18.7626C18.5631 18.7362 18.537 18.709 18.5106 18.7089C18.4812 18.7066 18.3381 18.623 18.1913 18.5233C18.0479 18.4224 17.8461 18.2733 17.7557 18.1884C17.6597 18.1082 17.4515 17.9109 17.2977 17.7519C17.1438 17.5925 16.9369 17.3587 16.8466 17.2313C16.7511 17.1094 16.6598 17.0077 16.6386 17.0077C16.6128 17.0064 16.5966 16.9694 16.5966 16.9276C16.5962 16.8851 16.5645 16.8162 16.5223 16.7792C16.4837 16.7441 16.3297 16.4792 16.1766 16.1942C16.028 15.9128 15.9053 15.6362 15.9052 15.5829C15.905 15.5349 15.8675 15.444 15.8251 15.3856C15.7779 15.3271 15.7461 15.2318 15.746 15.1737C15.7458 15.1152 15.7137 15.0087 15.6766 14.9345C15.6343 14.8594 15.5914 14.652 15.5702 14.4667C15.5489 14.2861 15.5059 14.0886 15.4794 14.0302C15.4478 13.9634 15.4317 13.5705 15.4423 13.0839C15.4529 12.6267 15.49 12.0789 15.5272 11.8769C15.5644 11.6696 15.6283 11.4247 15.6708 11.329C15.7133 11.2386 15.746 11.1165 15.746 11.0634C15.7462 11.0153 15.7827 10.8982 15.8251 10.8134C15.8728 10.7285 15.905 10.6173 15.9052 10.5692C15.9053 10.5216 15.9378 10.4522 15.9852 10.4149C16.0277 10.3777 16.0643 10.3084 16.0643 10.2606C16.0698 10.2126 16.1283 10.0795 16.1972 9.96279C16.2715 9.84589 16.3572 9.69158 16.3944 9.61709C16.4313 9.54334 16.4739 9.47461 16.4901 9.45791C16.506 9.44198 16.5696 9.35127 16.6386 9.25576C16.7024 9.16537 16.7557 9.07444 16.7557 9.05849C16.7607 9.03778 17.0299 8.75247 17.3563 8.4208C17.6814 8.09046 17.9668 7.81696 17.995 7.80947C18.0172 7.80865 18.1447 7.7237 18.2821 7.61806C18.4256 7.51712 18.7602 7.32513 19.0311 7.19228C19.2919 7.06713 19.5285 6.96286 19.5575 6.95888C19.584 6.95888 19.6748 6.92639 19.7597 6.8788C19.8443 6.83649 19.978 6.79911 20.0526 6.79873C20.1269 6.79865 20.2701 6.76676 20.371 6.72451C20.5145 6.66074 20.8082 6.64487 21.663 6.63955ZM97.8925 6.96962C97.8977 7.03871 97.8612 7.12929 97.8134 7.17177C97.7664 7.21362 97.7293 7.2662 97.7333 7.28798C97.7333 7.31457 97.6799 7.41049 97.6161 7.50087C97.5471 7.59643 97.4782 7.68205 97.4569 7.6874C97.4311 7.69825 97.4143 7.72964 97.4139 7.75576C97.4139 7.78234 97.2597 8.04329 97.0682 8.32509C96.8822 8.61207 96.6913 8.89456 96.6434 8.95302C96.6013 9.01103 96.5638 9.07501 96.5634 9.09658C96.5631 9.12315 96.537 9.17033 96.5106 9.20205C96.4784 9.23978 96.3721 9.38361 96.2714 9.52138C96.1711 9.66386 96.086 9.78636 96.0848 9.80361C96.0828 9.82247 95.9293 10.0657 95.7391 10.3456C95.5535 10.6319 95.3627 10.9132 95.3143 10.9726C95.2721 11.0308 95.2346 11.1113 95.2343 11.1435C95.2342 11.1804 95.2131 11.2116 95.1815 11.2118C95.1546 11.2133 95.1007 11.2661 95.0692 11.329C95.0454 11.3909 94.9916 11.4917 94.9501 11.5692L94.9364 11.5946C94.8994 11.6792 94.8415 11.7434 94.8095 11.744C94.783 11.7452 94.7452 11.7869 94.7294 11.8339C94.7134 11.8871 94.66 11.9944 94.6122 12.0741C94.5588 12.149 94.426 12.3557 94.3095 12.5253C94.1978 12.6954 94.0589 12.8977 94.0057 12.9774C93.9477 13.062 93.9056 13.1526 93.9052 13.1796C93.9051 13.2062 93.8833 13.2323 93.8514 13.2323C93.8248 13.234 93.7825 13.2762 93.7616 13.3231C93.7457 13.3763 93.6656 13.5043 93.5858 13.6054C93.5063 13.7063 93.4264 13.8286 93.4052 13.871C93.3839 13.9136 93.3416 13.9982 93.3046 14.0565C93.2673 14.1151 93.1921 14.2382 93.1337 14.3231C93.0754 14.408 93.0168 14.4928 93.0009 14.5087C92.9925 14.5174 92.97 14.5483 92.9413 14.5907L92.7421 14.9052L92.6229 15.0692C92.5936 15.1124 92.5569 15.1681 92.5223 15.2265C92.4532 15.3434 92.331 15.5294 92.246 15.6356C92.1452 15.7736 92.1079 15.8816 92.1503 16.1044L98.079 16.1308L98.1054 19.3476H85.1317L85.1903 19.2245C85.2272 19.1613 85.2698 19.0975 85.286 19.081C85.3021 19.0648 85.3715 18.9751 85.4403 18.8798C85.5041 18.7894 85.5575 18.6985 85.5575 18.6825C85.5581 18.6663 85.5901 18.6239 85.6268 18.5819C85.6587 18.5448 85.7278 18.4543 85.7704 18.3905C85.8129 18.3268 85.9619 18.1185 86.1054 17.9325C86.2427 17.7475 86.3542 17.568 86.3554 17.5399C86.3555 17.5269 86.3647 17.5103 86.3788 17.496L86.4901 17.4237C86.5048 17.4091 86.5145 17.3931 86.5145 17.3798C86.516 17.3514 86.627 17.1713 86.7694 16.9813C86.9075 16.7954 87.1415 16.471 87.285 16.2636C87.4335 16.0568 87.5833 15.8498 87.621 15.8065C87.6529 15.764 87.6845 15.7209 87.6845 15.705C87.686 15.6873 87.7701 15.5657 87.87 15.4237C87.9704 15.2863 88.0712 15.1477 88.0985 15.12C88.1251 15.0934 88.2369 14.9337 88.3485 14.7743C88.4601 14.6149 88.6203 14.3919 88.7001 14.2802C88.7851 14.1739 88.8544 14.0725 88.8544 14.0565C88.8576 14.0366 89.0054 13.8257 89.1893 13.5839C89.3699 13.3342 89.6247 12.9727 89.7577 12.7811C89.8906 12.5898 90.1093 12.2753 90.2528 12.0839C90.3909 11.898 90.5018 11.7169 90.5018 11.6903C90.5025 11.6638 90.5346 11.621 90.5712 11.5946C90.6031 11.5733 90.6833 11.4832 90.747 11.3983C90.8055 11.3132 90.9707 11.0743 91.1141 10.8671C91.2522 10.66 91.4271 10.4202 91.4911 10.3349C91.5974 10.202 91.6081 10.1596 91.5497 10.08C91.4908 9.98507 91.3294 9.98427 88.6044 9.98427C86.3456 9.98958 85.7115 9.97298 85.6796 9.91982C85.6638 9.87559 85.6477 9.19972 85.6425 8.41005C85.6425 7.62127 85.6584 6.94797 85.6796 6.91103C85.7115 6.8685 87.4832 6.85244 97.8925 6.85244V6.96962ZM23.0282 10.0751C22.9263 10.0647 22.6604 10.08 22.4432 10.1171C22.2259 10.149 21.971 10.2075 21.8856 10.2499C21.8009 10.287 21.6891 10.3405 21.6464 10.3671C21.6037 10.3936 21.5285 10.4309 21.4862 10.452C21.4427 10.469 21.3103 10.5591 21.1942 10.6435C21.0772 10.7339 20.8902 10.9046 20.7841 11.0214C20.6732 11.1428 20.5837 11.2549 20.5829 11.2821C20.5825 11.3035 20.5504 11.3507 20.5136 11.3876C20.4815 11.4251 20.407 11.537 20.3593 11.6376C20.3114 11.7386 20.2317 11.9201 20.1786 12.037C20.1308 12.1541 20.0724 12.441 20.0458 12.6747C20.0192 12.9298 20.0241 13.292 20.0507 13.579C20.0823 13.8423 20.1256 14.0801 20.1522 14.1102C20.1787 14.137 20.2101 14.2435 20.2313 14.3388C20.247 14.4274 20.2896 14.5057 20.3163 14.5087C20.3427 14.5087 20.3697 14.5411 20.37 14.578C20.37 14.6099 20.4662 14.7752 20.5829 14.9345C20.7048 15.0934 20.901 15.3166 21.0233 15.4286C21.1454 15.54 21.3909 15.7103 21.5663 15.8114C21.7412 15.9121 21.9917 16.0184 22.1249 16.0507C22.2574 16.0825 22.4705 16.1363 22.6034 16.163C22.736 16.1947 22.9491 16.1993 23.0819 16.1835C23.2147 16.1622 23.4539 16.1146 23.6132 16.0722C23.7724 16.0244 24.054 15.9125 24.2401 15.8222C24.426 15.7266 24.6867 15.5459 24.8251 15.413C24.9632 15.2802 25.1659 15.0412 25.2723 14.8817C25.3835 14.7229 25.4737 14.5636 25.4745 14.536C25.4698 14.5093 25.5065 14.4454 25.5536 14.4032C25.6014 14.3607 25.6385 14.2647 25.6386 14.1903C25.6387 14.116 25.6714 13.999 25.7138 13.9247C25.7669 13.829 25.788 13.6053 25.788 13.1269C25.788 12.6487 25.7669 12.4247 25.7138 12.329C25.6714 12.2546 25.639 12.1426 25.6337 12.079C25.6334 12.0096 25.5801 11.8552 25.5165 11.7333C25.4529 11.6063 25.3786 11.4996 25.3573 11.494C25.3364 11.4825 25.3143 11.4402 25.3143 11.3983C25.3123 11.3541 25.138 11.1425 24.9266 10.9364C24.6505 10.6551 24.4313 10.4949 24.1444 10.3515C23.9266 10.2454 23.6237 10.1438 23.4804 10.1278C23.3316 10.1066 23.129 10.0857 23.0282 10.0751Z" fill="var(--fill-0, black)"/>
</g>
</svg>
