<svg preserveAspectRatio="none" width="100%" height="100%" overflow="visible" style="display: block;" viewBox="0 0 14.5006 7.50073" fill="none" xmlns="http://www.w3.org/2000/svg">
<path id="Vector" d="M13.7506 3.00036C13.9495 3.00036 14.1402 3.07938 14.2809 3.22003C14.4215 3.36069 14.5006 3.55145 14.5006 3.75036C14.5006 3.94928 14.4215 4.14004 14.2809 4.28069C14.1402 4.42134 13.9495 4.50036 13.7506 4.50036H2.77756L4.73856 6.18036C4.88973 6.30979 4.9833 6.49397 4.99868 6.69238C5.01405 6.89079 4.94998 7.08719 4.82056 7.23836C4.69113 7.38954 4.50695 7.4831 4.30854 7.49848C4.11013 7.51386 3.91373 7.44979 3.76256 7.32036L0.262558 4.32036C0.180223 4.24995 0.114119 4.16254 0.0687945 4.06414C0.0234697 3.96575 0 3.8587 0 3.75036C0 3.64203 0.0234697 3.53498 0.0687945 3.43658C0.114119 3.33818 0.180223 3.25077 0.262558 3.18036L3.76256 0.180363C3.83741 0.116278 3.92415 0.0675639 4.01783 0.0370022C4.11151 0.00644047 4.2103 -0.00537079 4.30854 0.00224361C4.40678 0.00985801 4.50257 0.0367492 4.59042 0.0813805C4.67827 0.126012 4.75647 0.18751 4.82056 0.262363C4.88464 0.337217 4.93336 0.42396 4.96392 0.51764C4.99448 0.61132 5.00629 0.710101 4.99868 0.808345C4.99106 0.90659 4.96417 1.00237 4.91954 1.09022C4.87491 1.17808 4.81341 1.25628 4.73856 1.32036L2.77856 3.00036H13.7506Z" fill="var(--fill-0, #F50808)"/>
</svg>
