<svg preserveAspectRatio="none" width="100%" height="100%" overflow="visible" style="display: block;" viewBox="0 0 14.498 21.5" fill="none" xmlns="http://www.w3.org/2000/svg">
<path id="Vector" d="M6.69301 0C5.32601 0 4.22301 -1.49012e-08 3.35601 0.117C2.45601 0.237 1.69801 0.497 1.09601 1.098C0.57201 1.623 0.30601 2.268 0.167011 3.026C0.0320105 3.763 0.00601068 4.664 1.06814e-05 5.746C-0.00105018 5.94491 0.0769502 6.1361 0.216852 6.2775C0.356755 6.4189 0.547099 6.49894 0.746011 6.5C0.944923 6.50106 1.13611 6.42306 1.27751 6.28316C1.41892 6.14326 1.49895 5.95291 1.50001 5.754C1.50601 4.661 1.53401 3.886 1.64201 3.297C1.74701 2.731 1.91401 2.402 2.15701 2.159C2.43401 1.882 2.82301 1.702 3.55701 1.603C4.31201 1.502 5.31301 1.5 6.74801 1.5H7.74801C9.18401 1.5 10.185 1.502 10.94 1.603C11.674 1.702 12.062 1.883 12.34 2.159C12.616 2.436 12.796 2.824 12.895 3.559C12.997 4.313 12.998 5.315 12.998 6.75V14.75C12.998 16.185 12.997 17.186 12.895 17.942C12.796 18.676 12.616 19.064 12.339 19.341C12.062 19.618 11.674 19.798 10.94 19.897C10.185 19.998 9.18401 20 7.74801 20H6.74801C5.31301 20 4.31201 19.998 3.55601 19.897C2.82301 19.798 2.43401 19.617 2.15701 19.341C1.91401 19.097 1.74701 18.769 1.64201 18.203C1.53401 17.614 1.50601 16.839 1.50001 15.746C1.49949 15.6475 1.47957 15.5501 1.44139 15.4593C1.40321 15.3685 1.34753 15.2861 1.27751 15.2168C1.2075 15.1476 1.12452 15.0928 1.03333 15.0556C0.942133 15.0184 0.844502 14.9995 0.746011 15C0.64752 15.0005 0.550096 15.0204 0.459303 15.0586C0.36851 15.0968 0.286125 15.1525 0.216852 15.2225C0.14758 15.2925 0.0927765 15.3755 0.0555708 15.4667C0.0183651 15.5579 -0.000514606 15.6555 1.06814e-05 15.754C0.00601068 16.836 0.0320105 17.737 0.167011 18.474C0.307011 19.232 0.572011 19.877 1.09701 20.402C1.69801 21.004 2.45701 21.262 3.35701 21.384C4.22301 21.5 5.32601 21.5 6.69301 21.5H7.80301C9.17101 21.5 10.273 21.5 11.14 21.384C12.04 21.262 12.798 21.004 13.4 20.402C14.002 19.8 14.26 19.042 14.382 18.142C14.498 17.275 14.498 16.172 14.498 14.805V6.695C14.498 5.328 14.498 4.225 14.382 3.358C14.261 2.458 14.002 1.7 13.4 1.098C12.798 0.496 12.04 0.238 11.14 0.117C10.273 -1.49012e-08 9.17001 0 7.80301 0H6.69301Z" fill="var(--fill-0, #F50808)"/>
</svg>
