<svg preserveAspectRatio="none" width="100%" height="100%" overflow="visible" style="display: block;" viewBox="0 0 36.8401 34.0063" fill="none" xmlns="http://www.w3.org/2000/svg">
<g id="Vector">
<path d="M1.76007 20.3937C1.99928 20.3873 2.28375 20.4314 2.43898 20.4953C2.59423 20.5528 2.8336 20.6878 2.97592 20.8028C3.1182 20.9115 3.3062 21.1481 3.55836 21.6336L3.62297 27.8959L3.90054 28.4713C4.12045 28.925 4.27584 29.1363 4.61858 29.4622C4.87087 29.705 5.22086 29.9602 5.47314 30.0816C5.69951 30.1903 5.9453 30.3052 6.01645 30.3244C6.08763 30.35 6.24941 30.4012 6.37228 30.4395C6.50913 30.4778 7.99637 30.5164 9.99434 30.542L10.0371 30.5429C13.345 30.5807 13.3981 30.581 13.6492 30.7209C13.7914 30.7976 13.9854 30.9319 14.076 31.0086C14.1665 31.0917 14.322 31.2832 14.4191 31.4429C14.5743 31.6858 14.6066 31.8013 14.6066 32.1784C14.613 32.5106 14.5743 32.6898 14.4773 32.8815C14.4061 33.0221 14.2185 33.2517 14.0569 33.3922C13.8758 33.5583 13.6301 33.6932 13.3843 33.7635C13.0286 33.8722 12.7567 33.8781 9.60666 33.8525C6.83167 33.827 6.1327 33.8079 5.78984 33.7248C5.55717 33.6674 5.2211 33.5845 5.04632 33.5333C4.86519 33.4822 4.56056 33.3799 4.3665 33.3032C4.1724 33.2265 3.79077 33.0409 3.5256 32.9004C3.2604 32.7598 2.8663 32.5038 2.65284 32.3312C2.4394 32.1651 2.0703 31.8332 1.83742 31.5904C1.60459 31.3539 1.32677 31.0405 1.21676 30.8998C1.10682 30.7593 0.873569 30.3698 0.698931 30.0376C0.517806 29.7053 0.362501 29.3724 0.343095 29.3021C0.323618 29.2316 0.239661 28.9439 0.155621 28.6628C0.00045863 28.1519 2.5674e-10 28.1385 0 24.829C0 21.6531 0.00645448 21.4988 0.122859 21.3135C0.194015 21.2112 0.336874 21.0257 0.446842 20.9107C0.556792 20.7894 0.731184 20.6489 0.82816 20.5978C0.925191 20.5403 1.08696 20.476 1.184 20.444C1.28105 20.4185 1.54015 20.3937 1.76007 20.3937Z" fill="url(#paint0_linear_2991_5764)"/>
<path fill-rule="evenodd" clip-rule="evenodd" d="M12.4333 11.5743C13.106 11.5743 13.7531 11.5998 13.9213 11.6381C14.096 11.6765 14.3935 11.7525 14.5874 11.8036C14.7814 11.8547 15.0979 11.9704 15.2791 12.0535C15.4664 12.1365 15.6476 12.2061 15.6868 12.2064C15.7256 12.2064 15.7514 12.2257 15.7514 12.2576C15.7514 12.2832 15.855 12.36 15.9908 12.4302C16.1201 12.5005 16.4375 12.7628 16.6833 13.0057C16.9354 13.2547 17.1936 13.5549 17.2585 13.6764C17.3232 13.7978 17.401 13.9454 17.4269 13.9965C17.4593 14.0478 17.5308 14.1944 17.5825 14.3157C17.6342 14.4371 17.7057 14.6289 17.7445 14.7311C17.7833 14.8335 17.8601 15.1532 17.9183 15.4342C17.9765 15.7473 18.0157 16.2778 18.0157 16.7954C18.0157 17.3065 17.9766 17.8365 17.9119 18.1369C17.8602 18.4053 17.7698 18.7576 17.7181 18.9173C17.6663 19.0771 17.5437 19.3641 17.4532 19.5557C17.3563 19.7473 17.2464 19.9459 17.2075 19.9972C17.1752 20.0419 16.9544 20.2848 16.7216 20.5277C16.4887 20.7705 16.1331 21.0769 15.9262 21.2047C15.7199 21.3384 15.5524 21.4724 15.5576 21.505C15.5576 21.537 16.0365 22.042 16.6251 22.6235C17.2137 23.2051 17.6926 23.717 17.6926 23.7618C17.6906 23.819 17.2811 23.8382 15.8615 23.8382C14.2069 23.8446 14.025 23.8315 13.9085 23.7294C13.8374 23.6655 13.4684 23.2692 13.0867 22.8474C12.4269 22.1124 12.3879 22.0803 12.0839 22.0292C11.9157 22.0036 11.6503 21.9842 11.495 21.9842C11.3462 21.9842 11.0424 21.94 10.8161 21.8889C10.5963 21.8314 10.2987 21.7546 10.1563 21.7163C10.0141 21.678 9.73609 21.5694 9.54204 21.4735C9.34804 21.3777 9.05673 21.2242 8.89498 21.122C8.73327 21.0261 8.42863 20.7638 8.21516 20.5465C7.95655 20.2846 7.73642 19.971 7.55537 19.6133C7.40683 19.3197 7.25219 18.9752 7.21318 18.8535C7.17438 18.7321 7.09657 18.4124 7.04482 18.1504C6.99307 17.8756 6.95381 17.2933 6.95381 16.7757C6.95383 16.2134 6.99289 15.7021 7.05756 15.4018C7.10927 15.1401 7.19964 14.8018 7.25141 14.6547C7.30314 14.5013 7.40677 14.2454 7.48438 14.0792C7.56199 13.9067 7.74342 13.6128 7.88572 13.4211C8.02803 13.2293 8.18971 13.0245 8.24793 12.967C8.29974 12.9095 8.49377 12.756 8.66838 12.6155C8.84951 12.4813 9.17307 12.2834 9.38005 12.1812C9.59352 12.0789 9.82672 11.9703 9.89788 11.9447C9.96936 11.9191 10.1892 11.8483 10.3829 11.7973C10.577 11.7462 10.855 11.6764 10.9972 11.6444C11.1396 11.6125 11.7865 11.5807 12.4333 11.5743ZM12.4524 13.9381C12.2584 13.9444 11.9473 13.9894 11.7726 14.0406C11.5915 14.0981 11.3334 14.2199 11.1911 14.3157C11.0488 14.4115 10.8416 14.6287 10.7251 14.8012C10.6087 14.9738 10.473 15.2871 10.4148 15.498C10.3502 15.7537 10.3174 16.169 10.3174 16.7568C10.3174 17.3766 10.3499 17.7664 10.4275 18.0668C10.4922 18.3096 10.6278 18.629 10.7442 18.7888C10.8542 18.9485 11.0551 19.1533 11.1975 19.2491C11.3334 19.345 11.6114 19.466 11.8054 19.5171C11.9994 19.5746 12.3032 19.6195 12.4843 19.6196C12.6589 19.6196 12.9502 19.5816 13.1313 19.5368C13.306 19.4921 13.5581 19.3896 13.681 19.3193C13.8039 19.249 14.005 19.0767 14.1279 18.9425C14.2507 18.802 14.3928 18.591 14.4446 18.4696C14.4963 18.3482 14.5804 18.0408 14.6257 17.798C14.6774 17.5486 14.7158 17.0631 14.7158 16.7118C14.7093 16.3605 14.6709 15.9005 14.6257 15.6895C14.5739 15.4786 14.49 15.1971 14.4318 15.0628C14.3736 14.935 14.2306 14.724 14.1142 14.5962C14.0042 14.4684 13.8038 14.3023 13.681 14.2321C13.5581 14.1618 13.3059 14.0592 13.1313 14.0145C12.9503 13.9698 12.6465 13.9381 12.4524 13.9381Z" fill="url(#paint1_linear_2991_5764)"/>
<path d="M9.91062 0C11.9243 1.7081e-06 13.0426 0.0256331 13.0667 0.0638371C13.0861 0.102123 13.164 0.127595 13.2415 0.127674C13.3255 0.127674 13.5069 0.185185 13.6492 0.249054C13.7914 0.306553 13.9853 0.428425 14.0824 0.517889C14.1729 0.600962 14.3285 0.824381 14.4191 1.0097C14.542 1.25252 14.5874 1.44428 14.5874 1.7254C14.5874 1.93589 14.5615 2.12101 14.5228 2.14079C14.484 2.15996 14.4582 2.23053 14.4582 2.30083C14.4582 2.37087 14.4322 2.42816 14.3936 2.42851C14.3549 2.42851 14.3291 2.46666 14.329 2.51122C14.329 2.54957 14.2379 2.67141 14.1215 2.78006C14.0051 2.8823 13.7915 3.02885 13.6492 3.10554C13.3969 3.23974 13.3194 3.24641 10.5122 3.26558C8.92733 3.27197 7.36816 3.30376 7.05119 3.33571C6.73424 3.36127 6.32034 3.43204 6.14567 3.48317C5.96455 3.54068 5.67327 3.65543 5.49862 3.73851C5.31749 3.828 5.0004 4.0522 4.78695 4.23752C4.57361 4.42918 4.28931 4.73549 4.15991 4.92714C4.02407 5.11887 3.84894 5.43223 3.77131 5.62396C3.63047 5.9592 3.62969 6.06933 3.59203 8.98484L3.59021 9.07475C3.57083 10.7784 3.52608 12.2403 3.49374 12.334C3.46787 12.4235 3.37661 12.5965 3.29899 12.718C3.22143 12.8392 3.09886 12.9858 3.03416 13.0434C2.96303 13.1073 2.79513 13.2167 2.65284 13.2934C2.47823 13.3956 2.2451 13.4467 1.94117 13.4723C1.69558 13.4851 1.36582 13.4656 1.21039 13.4274C1.06161 13.389 0.815048 13.261 0.659798 13.1459C0.511028 13.0308 0.29739 12.8071 0 12.3664V9.07475C1.60278e-06 6.53798 0.0199612 5.72001 0.0846361 5.49628C0.129894 5.33659 0.213894 5.06832 0.27211 4.88938C0.32386 4.71683 0.414204 4.46684 0.465954 4.34542C0.524207 4.2239 0.63392 3.98116 0.724412 3.80235C0.814984 3.62979 1.04809 3.25905 1.24861 2.97786C1.44914 2.70309 1.82462 2.28822 2.0704 2.05178C2.31621 1.82171 2.7301 1.49505 2.97592 1.32889C3.22169 1.16915 3.57111 0.9652 3.7522 0.875737C3.92686 0.786264 4.17898 0.677007 4.30188 0.619489C4.4248 0.568361 4.65801 0.485393 4.81971 0.434272C4.98143 0.376772 5.22716 0.306353 5.36939 0.261642C5.51173 0.22331 5.87367 0.15972 6.17753 0.12138C6.48156 0.083035 6.74066 0.037957 6.7536 0.0251752C6.77348 0.0124252 8.19421 0 9.91062 0Z" fill="url(#paint2_linear_2991_5764)"/>
<path d="M34.919 20.3937C35.0872 20.3938 35.3777 20.4325 35.5651 20.4836C35.785 20.5475 36.0115 20.6751 36.2185 20.854C36.3997 21.0138 36.5943 21.2631 36.8401 21.7999V24.7526C36.8401 27.1164 36.8203 27.8132 36.7427 28.2223C36.691 28.5034 36.5747 28.9447 36.4907 29.2131C36.4001 29.4751 36.2446 29.8457 36.1476 30.0439C36.0441 30.2356 35.8566 30.5551 35.7207 30.7596C35.5914 30.9641 35.2419 31.3735 34.9508 31.6803C34.6533 31.9806 34.2263 32.3637 33.9934 32.5362C33.7606 32.7024 33.314 32.9708 32.9905 33.1305C32.6736 33.2839 32.2338 33.4756 32.0204 33.5459C31.807 33.6162 31.4451 33.7186 31.2123 33.7761C30.9794 33.8272 30.5067 33.9042 30.1639 33.9361C29.8143 33.9745 28.249 34.0063 26.6838 34.0063C24.8082 34.0063 23.7215 33.981 23.5013 33.9298C23.3137 33.8915 23.0287 33.7759 22.867 33.6736C22.7053 33.5712 22.4855 33.3477 22.3692 33.1881C22.2528 33.0219 22.1232 32.7473 22.0779 32.5812C22.0068 32.3319 22.0132 32.2231 22.0843 31.9419C22.136 31.7568 22.22 31.5334 22.2782 31.4501C22.3364 31.3606 22.4533 31.2133 22.5439 31.1174C22.6346 31.0279 22.868 30.868 23.4176 30.5869L26.813 30.5492C29.3552 30.5236 30.2871 30.4917 30.5006 30.4278C30.6623 30.3831 30.8176 30.3186 30.8564 30.2866C30.8888 30.2549 30.9595 30.2292 31.0175 30.2291C31.0693 30.2291 31.3025 30.1011 31.5353 29.9477C31.7681 29.8007 32.0853 29.5331 32.247 29.3606C32.4087 29.1817 32.6283 28.8746 32.7448 28.6637C32.8548 28.4529 32.9905 28.0566 33.0488 27.7754C33.1393 27.3472 33.1525 26.7909 33.1525 21.7037L33.3336 21.3521C33.4307 21.1604 33.6121 20.9238 33.735 20.828C33.858 20.7257 34.1101 20.5852 34.2847 20.5214C34.4658 20.4511 34.7508 20.3937 34.919 20.3937Z" fill="url(#paint3_linear_2991_5764)"/>
<path fill-rule="evenodd" clip-rule="evenodd" d="M23.2874 11.6957C25.9651 11.6957 26.7159 11.7152 27.117 11.7919C27.3951 11.843 27.8221 11.9834 28.0744 12.1048C28.3202 12.2326 28.6696 12.4691 28.8443 12.6352C29.0125 12.8078 29.2386 13.0894 29.3421 13.2619C29.4456 13.4409 29.575 13.741 29.6397 13.9327C29.7044 14.15 29.7498 14.5082 29.7498 14.8596C29.7498 15.1791 29.7177 15.5499 29.6724 15.6904C29.6207 15.8311 29.5171 16.0925 29.4331 16.265C29.3425 16.4439 29.1229 16.7449 28.9353 16.9366C28.7412 17.1347 28.4171 17.371 28.2036 17.4797C27.9921 17.581 27.8125 17.6759 27.7968 17.6838C27.7903 17.6965 27.8806 17.8819 28.0034 18.1054C28.1198 18.3227 28.3718 18.7897 28.5594 19.1412C28.747 19.4927 28.9802 19.9271 29.0773 20.0997C29.1743 20.2786 29.4335 20.7517 29.647 21.1543C29.8668 21.5569 30.0213 21.9146 30.0019 21.9402C29.9801 21.9657 29.1314 21.9851 26.2961 21.9851L26.1277 21.621C26.0372 21.4165 25.623 20.5727 24.4523 18.2466H23.2874L23.2228 21.9528H19.9238L19.9047 16.9042C19.8982 14.1306 19.9044 11.8231 19.9238 11.7784C19.9456 11.7147 20.6851 11.6957 23.2874 11.6957ZM25.042 14.0109C24.0525 13.9917 23.8193 14.0044 23.7934 14.0747C23.7741 14.1272 23.7678 14.5548 23.7743 15.0269L23.787 15.8828C25.9217 15.8828 26.1549 15.8635 26.3425 15.774C26.4653 15.7101 26.6334 15.5574 26.7111 15.4234C26.7952 15.2828 26.8539 15.0714 26.8603 14.9244C26.8603 14.7774 26.8013 14.5791 26.7302 14.4577C26.659 14.3491 26.5232 14.2024 26.4262 14.1386C26.2775 14.0492 26.0573 14.0237 25.042 14.0109Z" fill="url(#paint4_linear_2991_5764)"/>
<path d="M26.6192 0.00719291C28.1328 0.0071933 29.6856 0.032782 30.0801 0.0647362C30.4747 0.103088 30.9795 0.172669 31.2123 0.230173C31.4451 0.287687 31.807 0.390073 32.0204 0.460346C32.2338 0.530622 32.6736 0.722381 32.9905 0.875737C33.3074 1.03547 33.7605 1.2975 33.9934 1.47005C34.2263 1.64258 34.6212 1.99395 34.8735 2.24958C35.1257 2.50522 35.4617 2.88924 35.617 3.10014C35.7657 3.311 36.0054 3.70039 36.1348 3.96239C36.2706 4.22426 36.4385 4.62687 36.5098 4.85701C36.5809 5.08705 36.691 5.5028 36.7427 5.784C36.8204 6.19301 36.8401 6.88355 36.8401 9.25458C36.8401 12.0728 36.8329 12.2202 36.71 12.495C36.6387 12.6547 36.4842 12.8914 36.3614 13.0255C36.245 13.1532 35.999 13.3316 35.8309 13.4211C35.6195 13.5233 35.3731 13.5829 35.0928 13.6C34.7825 13.6191 34.5816 13.5934 34.3165 13.4912C34.1225 13.4209 33.8578 13.2805 33.735 13.1783C33.6121 13.0824 33.4307 12.8394 33.1525 12.3026V9.45867C33.1525 7.17092 33.1328 6.53809 33.0552 6.19939C33.0034 5.9693 32.8676 5.5986 32.7512 5.36861C32.6218 5.10025 32.3958 4.80617 32.1242 4.53783C31.8719 4.29497 31.5093 4.02657 31.2441 3.88597C30.9985 3.75824 30.6624 3.61788 30.5006 3.57308C30.2936 3.51556 29.2453 3.48355 26.813 3.45799C23.4624 3.41965 23.4102 3.41966 23.1127 3.27907C22.9381 3.19594 22.6988 3.0229 22.563 2.89515C22.4337 2.76091 22.2782 2.53754 22.2135 2.39704C22.1489 2.25651 22.0847 2.03925 22.0588 1.91781C22.033 1.7836 22.0524 1.55328 22.1171 1.34238C22.1818 1.11239 22.311 0.888763 22.492 0.677932C22.6473 0.505377 22.8866 0.306767 23.029 0.236467C23.1712 0.172599 23.417 0.0903388 23.5786 0.0647362C23.7404 0.0391726 25.1055 0.0135838 26.6192 0.00719291Z" fill="url(#paint5_linear_2991_5764)"/>
</g>
<defs>
<linearGradient id="paint0_linear_2991_5764" x1="35.126" y1="12.8942" x2="12.4119" y2="17.0648" gradientUnits="userSpaceOnUse">
<stop stop-color="#8073E0"/>
<stop offset="1" stop-color="#AF47AF"/>
</linearGradient>
<linearGradient id="paint1_linear_2991_5764" x1="35.126" y1="12.8942" x2="12.4119" y2="17.0648" gradientUnits="userSpaceOnUse">
<stop stop-color="#8073E0"/>
<stop offset="1" stop-color="#AF47AF"/>
</linearGradient>
<linearGradient id="paint2_linear_2991_5764" x1="35.126" y1="12.8942" x2="12.4119" y2="17.0648" gradientUnits="userSpaceOnUse">
<stop stop-color="#8073E0"/>
<stop offset="1" stop-color="#AF47AF"/>
</linearGradient>
<linearGradient id="paint3_linear_2991_5764" x1="35.126" y1="12.8942" x2="12.4119" y2="17.0648" gradientUnits="userSpaceOnUse">
<stop stop-color="#8073E0"/>
<stop offset="1" stop-color="#AF47AF"/>
</linearGradient>
<linearGradient id="paint4_linear_2991_5764" x1="35.126" y1="12.8942" x2="12.4119" y2="17.0648" gradientUnits="userSpaceOnUse">
<stop stop-color="#8073E0"/>
<stop offset="1" stop-color="#AF47AF"/>
</linearGradient>
<linearGradient id="paint5_linear_2991_5764" x1="35.126" y1="12.8942" x2="12.4119" y2="17.0648" gradientUnits="userSpaceOnUse">
<stop stop-color="#8073E0"/>
<stop offset="1" stop-color="#AF47AF"/>
</linearGradient>
</defs>
</svg>
