<svg preserveAspectRatio="none" width="100%" height="100%" overflow="visible" style="display: block;" viewBox="0 0 22.6559 16.9721" fill="none" xmlns="http://www.w3.org/2000/svg">
<path id="Vector" d="M2.57869 8.48603L3.5611 4.55783C3.63868 4.24814 3.81751 3.97326 4.06919 3.77685C4.32087 3.58043 4.63097 3.47375 4.95022 3.47374H20.6143C20.832 3.47375 21.0468 3.52338 21.2424 3.61886C21.4381 3.71435 21.6094 3.85317 21.7433 4.02479C21.8772 4.1964 21.9702 4.39629 22.0153 4.60925C22.0604 4.82222 22.0563 5.04266 22.0034 5.25382L21.5523 7.05824M8.48602 16.3625H2.76343C2.48085 16.3632 2.2009 16.3082 1.93962 16.2006C1.67834 16.093 1.44085 15.9349 1.24077 15.7353C1.0407 15.5358 0.881954 15.2987 0.773643 15.0377C0.665331 14.7767 0.609579 14.4969 0.60958 14.2143V2.04166C0.60958 1.66185 0.76046 1.29759 1.02903 1.02903C1.29759 0.76046 1.66185 0.60958 2.04166 0.60958H9.20206C9.58188 0.60958 9.94613 0.76046 10.2147 1.02903C10.4833 1.29759 10.6341 1.66185 10.6341 2.04166V3.47374" stroke="var(--stroke-0, #AF47AF)" stroke-width="1.21916" stroke-linecap="round" stroke-linejoin="round"/>
</svg>
