<svg preserveAspectRatio="none" width="100%" height="100%" overflow="visible" style="display: block;" viewBox="0 0 21 17" fill="none" xmlns="http://www.w3.org/2000/svg">
<path id="Vector" d="M20.5 10.853C20.5 13.56 18.573 15.823 16 16.373M4.786 16.5C2.419 16.5 0.5 14.604 0.5 12.265C0.5 9.926 2.419 8.029 4.786 8.029C5.07067 8.02967 5.34733 8.05633 5.616 8.109M12.881 5.527C13.4936 5.31426 14.1375 5.20575 14.786 5.206C15.44 5.206 16.069 5.315 16.656 5.515M16.656 5.515C16.337 2.694 13.916 0.5 10.976 0.5C7.82 0.5 5.262 3.028 5.261 6.147C5.2607 6.81691 5.3806 7.48144 5.615 8.109C6.16822 8.21671 6.69488 8.43213 7.165 8.743M16.656 5.515C17.331 5.74517 17.9559 6.09998 18.5 6.561" stroke="var(--stroke-0, #AF47AF)" stroke-linecap="round"/>
</svg>
