<svg width="40" height="31" viewBox="0 0 40 31" fill="none" xmlns="http://www.w3.org/2000/svg">
<path fill-rule="evenodd" clip-rule="evenodd" d="M4.4523 0H35.5478C37.9668 0 40.0001 1.99824 40.0001 4.4523V26.0123C40.0001 28.4664 37.9669 30.4646 35.5478 30.4646H4.4523C1.99824 30.4646 0 28.4664 0 26.0123V4.4523C0 1.99824 1.99824 0 4.4523 0ZM4.4523 2.10351H35.5478C36.0035 2.10351 36.4243 2.24378 36.7749 2.45405L20.0176 16.5119L3.40054 2.34892C3.71608 2.17351 4.06662 2.10351 4.4523 2.10351ZM37.8966 4.20689V4.4523V26.0123C37.8966 26.3278 37.8616 26.6434 37.7214 26.9238L26.4681 13.8124C26.468 13.8124 37.8966 4.20689 37.8966 4.20689ZM36.1788 28.2911C35.9684 28.3612 35.7581 28.3962 35.5477 28.3962H4.4523C4.24189 28.3962 4.06662 28.3612 3.85635 28.3261L15.1797 15.1096L19.3165 18.6504C19.7022 19.0009 20.263 18.9659 20.6487 18.6504L24.8555 15.1447L36.1788 28.2911ZM2.27865 26.9939C2.13838 26.6784 2.06824 26.3628 2.06824 26.0123V4.4523C2.06824 4.27703 2.10324 4.13676 2.13838 3.96149L13.602 13.7424L2.27865 26.9939Z" fill="black" fill-opacity="0.6"/>
</svg>
