<svg preserveAspectRatio="none" width="100%" height="100%" overflow="visible" style="display: block;" viewBox="0 0 27.0008 25.8014" fill="none" xmlns="http://www.w3.org/2000/svg">
<g id="Group">
<path id="Vector" d="M12.2339 25.8005C13.8283 25.8005 15.1208 24.5079 15.1208 22.9135V16.0778C15.0642 14.2912 16.1322 12.6238 18.2813 12.5489C20.3753 12.5489 21.2132 14.1454 21.2132 16.4862V22.9063C21.2132 24.5045 22.5088 25.8001 24.107 25.8001C25.7051 25.8001 27.0007 24.5045 27.0007 22.9063V15.8168C27.0007 10.4687 24.1456 7.98013 20.3374 7.98013C18.4339 7.98013 17.1811 8.62869 16.3206 9.40433C15.9036 9.78013 15.1036 9.51626 15.1122 8.95502C15.1169 8.64378 14.866 8.38892 14.5547 8.38892H12.2717C10.6713 8.38892 9.3594 9.72268 9.36397 11.323C9.3733 14.5868 9.3575 19.7087 9.34524 22.9044C9.33911 24.5043 10.634 25.8005 12.2339 25.8005Z" fill="var(--fill-0, #F1F1F1)"/>
<path id="Vector_2" d="M6.1292 18.2512V11.2838C6.1292 9.68541 4.83345 8.38967 3.23508 8.38967C1.6367 8.38967 0.340955 9.68541 0.340955 11.2838V22.9079C0.340955 24.5058 1.63635 25.8012 3.23431 25.8012C4.83302 25.8012 6.12921 24.5049 6.12963 22.9062C6.13007 21.2004 6.13067 19.3398 6.1292 18.2512Z" fill="var(--fill-0, #F1F1F1)"/>
<path id="Vector_3" d="M3.23656 6.01327C5.25446 6.01327 6.51097 4.67615 6.51097 3.00555C6.49427 -1.02415 -0.00528151 -0.979359 1.16155e-05 3.00515C-0.00446719 4.68877 1.28665 6.03404 3.23656 6.01327Z" fill="var(--fill-0, #F1F1F1)"/>
</g>
</svg>
