<svg width="56" height="39" viewBox="0 0 56 39" fill="none" xmlns="http://www.w3.org/2000/svg">
<g clip-path="url(#clip0_227_4703)">
<path d="M54.5073 6.08292C54.1891 4.90719 53.5686 3.83531 52.7073 2.97403C51.8461 2.11274 50.7742 1.4921 49.5985 1.1739C45.2942 0 27.9708 0 27.9708 0C27.9708 0 10.6466 0.0355332 6.3423 1.20943C5.16656 1.52765 4.09469 2.14833 3.23344 3.00965C2.3722 3.87098 1.75161 4.9429 1.4335 6.11867C0.13155 13.7666 -0.3735 25.4202 1.46925 32.7622C1.7874 33.9379 2.40799 35.0098 3.26924 35.8711C4.13049 36.7323 5.20233 37.353 6.37805 37.6712C10.6823 38.8451 28.0062 38.8451 28.0062 38.8451C28.0062 38.8451 45.3297 38.8451 49.6338 37.6712C50.8096 37.353 51.8815 36.7324 52.7428 35.8711C53.604 35.0098 54.2247 33.9379 54.5428 32.7622C55.9161 25.1034 56.3392 13.457 54.5073 6.08292Z" fill="#FF0000"/>
<path d="M22.457 27.7455L36.8281 19.4216L22.457 11.0977V27.7455Z" fill="white"/>
</g>
<defs>
<clipPath id="clip0_227_4703">
<rect width="55.4667" height="39" fill="white" transform="translate(0.265625)"/>
</clipPath>
</defs>
</svg>
