<svg width="52" height="52" viewBox="0 0 52 52" fill="none" xmlns="http://www.w3.org/2000/svg">
<g clip-path="url(#clip0_227_4692)">
<path d="M26 0C19.1059 0 12.4881 2.74097 7.61719 7.61516C2.74126 12.4913 0.00139526 19.1042 0 26C0 32.8928 2.74219 39.5107 7.61719 44.3848C12.4881 49.259 19.1059 52 26 52C32.8941 52 39.5119 49.259 44.3828 44.3848C49.2578 39.5107 52 32.8928 52 26C52 19.1072 49.2578 12.4893 44.3828 7.61516C39.5119 2.74097 32.8941 0 26 0Z" fill="url(#paint0_linear_227_4692)"/>
<path d="M11.7688 25.7261C19.3495 22.4241 24.4032 20.2471 26.9301 19.1952C34.1532 16.1918 35.6523 15.6702 36.6313 15.6525C36.8466 15.649 37.326 15.7023 37.6388 15.9552C37.8988 16.1684 37.972 16.4569 38.0085 16.6594C38.041 16.8617 38.0857 17.3228 38.0491 17.6827C37.6591 21.794 35.9651 31.7707 35.1038 36.3755C34.7423 38.3239 34.0232 38.9771 33.3285 39.0409C31.8173 39.1799 30.6716 38.0432 29.2091 37.0848C26.922 35.5845 25.6301 34.651 23.4079 33.1873C20.8404 31.4956 22.506 30.5657 23.9685 29.0464C24.3504 28.6486 31.0048 22.5975 31.1307 22.0487C31.147 21.98 31.1632 21.7241 31.0088 21.5892C30.8585 21.4539 30.6351 21.5003 30.4726 21.5368C30.241 21.5888 26.5888 24.0052 19.5038 28.7855C18.4679 29.4981 17.5295 29.8454 16.6845 29.8272C15.7582 29.8073 13.9707 29.3023 12.6423 28.8709C11.0173 28.3415 9.72133 28.0616 9.83508 27.1626C9.89196 26.6946 10.5379 26.2156 11.7688 25.7261Z" fill="white"/>
</g>
<defs>
<linearGradient id="paint0_linear_227_4692" x1="2600" y1="0" x2="2600" y2="5200" gradientUnits="userSpaceOnUse">
<stop stop-color="#2AABEE"/>
<stop offset="1" stop-color="#229ED9"/>
</linearGradient>
<clipPath id="clip0_227_4692">
<rect width="52" height="52" fill="white"/>
</clipPath>
</defs>
</svg>
