<svg width="56" height="55" viewBox="0 0 56 55" fill="none" xmlns="http://www.w3.org/2000/svg">
<g clip-path="url(#clip0_227_4642)">
<path d="M2.09278 27.171C2.09151 31.7921 3.28907 36.3042 5.56621 40.2813L1.875 53.8697L15.6672 50.2235C19.482 52.3173 23.7561 53.4144 28.0995 53.4147H28.1109C42.4493 53.4147 54.1211 41.6509 54.1272 27.1917C54.13 20.1851 51.4261 13.5967 46.5137 8.63984C41.6021 3.68344 35.0699 0.952416 28.1099 0.949219C13.7698 0.949219 2.09891 12.7124 2.09299 27.171" fill="url(#paint0_linear_227_4642)"/>
<path d="M1.16373 27.1623C1.16225 31.9497 2.40273 36.6232 4.76106 40.7426L0.9375 54.8182L15.2243 51.0413C19.1607 53.2052 23.5928 54.3462 28.1027 54.3479H28.1143C42.9671 54.3479 55.0581 42.1609 55.0645 27.1841C55.067 19.9258 52.2659 13.1004 47.178 7.96605C42.0894 2.83229 35.3236 0.0029845 28.1143 0C13.259 0 1.16965 12.1853 1.16373 27.1623ZM9.67203 40.0332L9.13858 39.1794C6.89612 35.5844 5.71251 31.4299 5.71421 27.164C5.71886 14.7155 15.767 4.5876 28.1228 4.5876C34.1063 4.59016 39.7296 6.94194 43.9591 11.2089C48.1885 15.4763 50.5157 21.149 50.5142 27.1824C50.5087 39.6309 40.4603 49.7601 28.1143 49.7601H28.1054C24.0855 49.7579 20.1429 48.6695 16.7045 46.6125L15.8863 46.1233L7.40821 48.3644L9.67203 40.0332Z" fill="url(#paint1_linear_227_4642)"/>
<path d="M21.3802 15.8061C20.8757 14.6756 20.3448 14.6528 19.865 14.633C19.4722 14.6159 19.0231 14.6172 18.5744 14.6172C18.1253 14.6172 17.3957 14.7875 16.7789 15.4665C16.1615 16.1461 14.4219 17.7884 14.4219 21.1287C14.4219 24.469 16.835 27.6974 17.1714 28.1508C17.5082 28.6034 21.8299 35.6775 28.6744 38.399C34.3628 40.6606 35.5204 40.2108 36.755 40.0973C37.9897 39.9844 40.7392 38.4554 41.3002 36.87C41.8615 35.2848 41.8615 33.926 41.6932 33.6421C41.5249 33.3592 41.0758 33.1893 40.4024 32.8499C39.729 32.5105 36.4181 30.8678 35.801 30.6412C35.1836 30.4148 34.7347 30.3018 34.2856 30.9816C33.8365 31.6604 32.547 33.1893 32.154 33.6421C31.7613 34.0959 31.3683 34.1524 30.6951 33.8128C30.0212 33.4722 27.8526 32.7561 25.2796 30.4434C23.2778 28.6437 21.9263 26.4213 21.5334 25.7415C21.1406 25.0627 21.4914 24.6948 21.829 24.3565C22.1316 24.0523 22.5027 23.5637 22.8397 23.1674C23.1754 22.7709 23.2875 22.488 23.512 22.0352C23.7368 21.582 23.6243 21.1854 23.4562 20.8459C23.2875 20.5063 21.9789 17.1485 21.3802 15.8061Z" fill="white"/>
</g>
<defs>
<linearGradient id="paint0_linear_227_4642" x1="2614.49" y1="5292.99" x2="2614.49" y2="0.949219" gradientUnits="userSpaceOnUse">
<stop stop-color="#1FAF38"/>
<stop offset="1" stop-color="#60D669"/>
</linearGradient>
<linearGradient id="paint1_linear_227_4642" x1="2707.29" y1="5481.82" x2="2707.29" y2="0" gradientUnits="userSpaceOnUse">
<stop stop-color="#F9F9F9"/>
<stop offset="1" stop-color="white"/>
</linearGradient>
<clipPath id="clip0_227_4642">
<rect width="54.127" height="55" fill="white" transform="translate(0.9375)"/>
</clipPath>
</defs>
</svg>
