<svg width="30" height="30" viewBox="0 0 30 30" fill="none" xmlns="http://www.w3.org/2000/svg">
<path d="M24.6046 25.3852C25.148 25.9287 25.9868 25.0899 25.4434 24.5583L21.0131 20.1162C22.5675 18.3969 23.4266 16.1607 23.4232 13.8429C23.4232 8.65657 19.2056 4.43896 14.0192 4.43896C8.83284 4.43896 4.61523 8.65657 4.61523 13.8429C4.61523 19.0293 8.83284 23.2469 14.0192 23.2469C16.3584 23.2469 18.5203 22.3845 20.1743 20.955L24.6046 25.3852ZM5.79546 13.8429C5.79546 9.30634 9.49324 5.62037 14.018 5.62037C18.5546 5.62037 22.2406 9.30634 22.2406 13.8429C22.2406 18.3795 18.5546 22.0655 14.018 22.0655C9.49324 22.0655 5.79546 18.3795 5.79546 13.8429Z" fill="black" fill-opacity="0.6"/>
</svg>
