<svg width="40" height="40" viewBox="0 0 40 40" fill="none" xmlns="http://www.w3.org/2000/svg">
<path d="M0.00488281 18.2227C0.238046 10.496 9.37858 4.50263 20.4219 4.83602C28.6793 5.08562 35.6608 8.80077 38.5615 13.8897C39.5405 15.6065 40.0541 17.4806 39.9951 19.4298L39.9775 19.7901C39.4766 27.3413 30.4483 33.1437 19.5771 32.8155C16.319 32.717 13.2592 32.0785 10.5713 31.0294C10.5713 31.0294 10.3467 32.2866 8.88672 33.4171L8.62695 33.6065C7.26954 34.5474 4.98503 35.3422 1.15332 35.1514C7.48091 32.7832 5.56152 28.2911 5.56152 28.2911C2.13091 25.7326 0.0225755 22.3076 0 18.5841L0.00488281 18.2227ZM20.377 6.33504C15.125 6.17643 10.3891 7.52661 6.98145 9.76082C3.56918 11.9982 1.60167 15.0282 1.50391 18.2677C1.40922 21.4058 3.07788 24.4533 6.15625 26.8585L6.45801 27.0889L6.78223 27.3302L6.94141 27.7022L5.56152 28.2911C6.85022 27.7404 6.93546 27.7057 6.94141 27.7042L6.94434 27.71C6.94555 27.7129 6.94683 27.7164 6.94824 27.7198C6.95122 27.727 6.9552 27.7358 6.95898 27.7452C6.9667 27.7644 6.97579 27.7893 6.98633 27.8175C7.00739 27.8738 7.03408 27.9479 7.0625 28.0382C7.11931 28.2186 7.18589 28.4672 7.23926 28.7686C7.34531 29.3679 7.40276 30.2078 7.19531 31.1544C7.05548 31.7923 6.80453 32.4364 6.41406 33.0616C7.10357 32.8091 7.60516 32.511 7.96777 32.2305C8.50875 31.8117 8.79724 31.3899 8.94727 31.1036C9.02312 30.9588 9.06545 30.8456 9.08594 30.7823C9.0933 30.7595 9.09735 30.7429 9.09961 30.7345L9.41504 28.9688L11.1162 29.6329C13.6391 30.6176 16.53 31.223 19.623 31.3165C24.875 31.475 29.6108 30.1249 33.0186 27.8907C36.4311 25.6533 38.3987 22.6229 38.4961 19.3839C38.5427 17.8402 38.1664 16.3348 37.4141 14.9161L37.2578 14.6329C34.6916 10.1307 28.2852 6.57411 20.377 6.33504Z" fill="black"/>
</svg>
