<svg width="40" height="12" viewBox="0 0 40 12" fill="none" xmlns="http://www.w3.org/2000/svg">
<path d="M36.7814 2.27528C36.8269 2.15389 36.9635 1.65317 37.1001 1.18279V1.16762C37.2366 0.697243 37.4187 0.302734 37.5249 0.302734C37.6159 0.302734 38.2532 1.45591 38.9209 2.88221C39.725 4.58163 40.0892 5.50721 39.983 5.59825C39.8919 5.67412 38.6781 6.79695 37.2518 8.08669C35.8255 9.3916 34.6268 10.4082 34.5661 10.3779C34.4902 10.3475 34.5813 9.89233 34.7482 9.37643C35.0213 8.51155 35.1882 8.28395 36.569 6.97903C37.4035 6.19002 38.0863 5.46169 38.0863 5.38582C38.0863 5.30996 37.7829 4.62715 37.4035 3.86848C37.0242 3.10981 36.7359 2.39666 36.7814 2.27528Z" fill="#097939"/>
<path d="M32.4853 10.393C32.546 10.302 33.2136 8.01082 33.9875 5.27961C34.7613 2.4877 35.4593 0.302734 35.5503 0.302734C35.6566 0.302734 36.2635 1.41039 36.9008 2.76083C37.5532 4.12643 38.0843 5.30996 38.0843 5.38583C38.0843 5.46169 37.356 6.23554 36.4607 7.08525C35.5503 7.93496 34.7917 8.64811 34.7462 8.66328C34.7006 8.67845 34.2454 9.07296 33.7144 9.54334C33.1833 10.0137 32.6674 10.4234 32.5764 10.4689C32.4702 10.4993 32.4398 10.4689 32.4853 10.393Z" fill="#ED752E"/>
<path d="M17.07 0.166907L18.7391 0.106214L18.8193 0.104898C19.8142 0.0885661 22.462 0.045104 24.8084 0.0303468C28.5107 0 29.2694 0.0303468 29.5576 0.227601C29.7701 0.364162 29.8915 0.606936 29.8915 0.864884C29.8915 1.10766 29.6183 2.27601 29.2845 3.48988C28.9507 4.70376 28.5562 5.81141 28.4045 5.97832C28.2679 6.13006 27.9189 6.35766 27.661 6.46387C27.2665 6.63078 26.0526 6.6763 17.2976 6.6763L16.9941 7.84465C16.8424 8.49711 16.5996 9.48338 16.2355 11.0766H15.1733C14.5967 11.0766 14.1112 11.0311 14.1112 10.9704C14.1264 10.8945 14.5209 9.45303 15.8713 4.62789L26.7809 4.55202L27.1147 3.5354C27.312 2.95881 27.4637 2.45809 27.4637 2.38222C27.4637 2.32153 25.0056 2.27601 22.0013 2.27601C18.4659 2.27601 16.5389 2.21532 16.5389 2.12428C16.5389 2.03324 16.6603 1.56286 17.07 0.166907Z" fill="#747474"/>
<path d="M30.1228 4.96213C30.8577 2.38303 31.4563 0.282362 31.4847 0.197254V0.182081C31.5302 0.0606936 31.9095 0 33.6848 0L33.5786 0.409682C33.5331 0.652456 32.8503 3.0802 30.6805 10.849L29.6032 10.8793C28.9659 10.9097 28.5259 10.8642 28.5259 10.7731C28.5259 10.6973 29.1783 8.31503 29.9673 5.50795L30.1228 4.96213Z" fill="#747474"/>
<path d="M0 10.0296C0 9.81719 0.59176 7.51084 1.32008 4.90101L2.64016 0.166907H3.74781C4.35475 0.166907 4.85546 0.197254 4.85546 0.242774C4.85546 0.288295 4.33957 2.13945 3.71747 4.36994C3.09536 6.6156 2.57947 8.52745 2.57947 8.61849C2.57947 8.77023 3.52021 8.80058 11.1221 8.73988L13.4284 0.242774L14.536 0.197254C15.5071 0.166907 15.6134 0.197254 15.5527 0.424855C15.5071 0.576589 14.8699 2.88295 14.1112 5.55347C13.0187 9.43786 12.6849 10.4697 12.4118 10.6821C12.0931 10.9249 11.6228 10.9552 6.29693 10.94C1.04696 10.94 0.50072 10.9097 0.257947 10.6669C0.106213 10.5303 0 10.242 0 10.0296Z" fill="#747474"/>
</svg>
